G04 EAGLE Gerber RS-274X export*
G75*
%MOMM*%
%FSLAX34Y34*%
%LPD*%
%INBottom Copper*%
%IPPOS*%
%AMOC8*
5,1,8,0,0,1.08239X$1,22.5*%
G01*
%ADD10P,1.759533X8X202.500000*%
%ADD11P,1.787026X8X202.500000*%
%ADD12C,1.320800*%
%ADD13P,1.924489X8X112.500000*%
%ADD14R,2.032000X2.032000*%
%ADD15C,2.032000*%
%ADD16P,1.924489X8X22.500000*%
%ADD17C,1.790700*%
%ADD18C,2.500000*%
%ADD19C,1.981200*%
%ADD20C,1.016000*%
%ADD21C,0.812800*%
%ADD22C,1.778000*%
%ADD23C,0.609600*%

G36*
X515433Y10156D02*
X515433Y10156D01*
X515435Y10156D01*
X515435Y10158D01*
X515437Y10160D01*
X515435Y10161D01*
X515435Y10164D01*
X513048Y12394D01*
X505860Y24213D01*
X502128Y37533D01*
X502128Y51367D01*
X505860Y64687D01*
X513048Y76506D01*
X523157Y85948D01*
X535440Y92312D01*
X548984Y95127D01*
X562785Y94183D01*
X575819Y89550D01*
X586737Y81844D01*
X586738Y81844D01*
X586739Y81843D01*
X586741Y81844D01*
X586744Y81844D01*
X586743Y81846D01*
X586745Y81848D01*
X586745Y257486D01*
X586742Y257489D01*
X586741Y257491D01*
X580392Y259355D01*
X580391Y259355D01*
X580390Y259354D01*
X580386Y259352D01*
X580386Y259351D01*
X580385Y259350D01*
X580385Y212870D01*
X578066Y207270D01*
X561080Y190284D01*
X555481Y187965D01*
X552620Y187965D01*
X552618Y187963D01*
X552617Y187963D01*
X552162Y187508D01*
X545139Y184599D01*
X519629Y184599D01*
X512606Y187508D01*
X507231Y192884D01*
X504322Y199907D01*
X504322Y207509D01*
X507231Y214532D01*
X512606Y219908D01*
X519630Y222817D01*
X545138Y222817D01*
X548941Y221241D01*
X548945Y221243D01*
X548947Y221243D01*
X549913Y222209D01*
X549913Y222211D01*
X549914Y222211D01*
X549913Y222211D01*
X549914Y222212D01*
X549915Y222213D01*
X549915Y236354D01*
X549914Y236355D01*
X549915Y236356D01*
X549913Y236356D01*
X549910Y236359D01*
X549909Y236358D01*
X549908Y236359D01*
X545139Y234383D01*
X519629Y234383D01*
X512606Y237292D01*
X507231Y242668D01*
X504322Y249691D01*
X504322Y257293D01*
X507231Y264316D01*
X512606Y269692D01*
X519630Y272601D01*
X531342Y272601D01*
X531343Y272602D01*
X531345Y272602D01*
X531345Y272603D01*
X531346Y272605D01*
X531345Y272607D01*
X531345Y272609D01*
X526834Y277120D01*
X524515Y282719D01*
X524515Y345169D01*
X524514Y345170D01*
X524514Y345172D01*
X524512Y345172D01*
X524510Y345174D01*
X524510Y345173D01*
X524509Y345173D01*
X524508Y345172D01*
X524506Y345172D01*
X515889Y336555D01*
X500111Y336555D01*
X496303Y340363D01*
X496300Y340364D01*
X496299Y340365D01*
X488913Y340365D01*
X488911Y340363D01*
X488909Y340363D01*
X487793Y339248D01*
X487793Y339241D01*
X488945Y338089D01*
X488945Y322311D01*
X477789Y311155D01*
X462011Y311155D01*
X450855Y322311D01*
X450855Y338089D01*
X454663Y341897D01*
X454664Y341900D01*
X454665Y341901D01*
X454665Y345931D01*
X456984Y351530D01*
X473970Y368516D01*
X479570Y370835D01*
X496299Y370835D01*
X496301Y370837D01*
X496303Y370837D01*
X499151Y373685D01*
X499151Y373688D01*
X499151Y373689D01*
X499151Y373691D01*
X499151Y373692D01*
X496575Y376268D01*
X496575Y380995D01*
X508000Y380995D01*
X519425Y380995D01*
X519425Y376268D01*
X516849Y373692D01*
X516849Y373690D01*
X516849Y373689D01*
X516849Y373685D01*
X524506Y366028D01*
X524508Y366028D01*
X524509Y366026D01*
X524511Y366027D01*
X524513Y366027D01*
X524513Y366030D01*
X524515Y366031D01*
X524515Y453881D01*
X526834Y459480D01*
X556263Y488909D01*
X556264Y488912D01*
X556265Y488913D01*
X556265Y492760D01*
X556260Y492765D01*
X556260Y492764D01*
X556260Y492765D01*
X544023Y492765D01*
X544021Y492763D01*
X544020Y492763D01*
X540973Y489717D01*
X525827Y489717D01*
X515405Y500139D01*
X515399Y500139D01*
X515399Y500138D01*
X515398Y500139D01*
X512469Y497210D01*
X508005Y497210D01*
X508005Y508000D01*
X508005Y518790D01*
X512469Y518790D01*
X515398Y515861D01*
X515405Y515861D01*
X515405Y515862D01*
X515405Y515861D01*
X525827Y526283D01*
X540973Y526283D01*
X544020Y523237D01*
X544022Y523236D01*
X544023Y523235D01*
X556260Y523235D01*
X556265Y523240D01*
X556264Y523240D01*
X556265Y523240D01*
X556265Y541014D01*
X556264Y541015D01*
X556265Y541015D01*
X556263Y541016D01*
X556260Y541019D01*
X556259Y541018D01*
X556258Y541019D01*
X550141Y538485D01*
X542059Y538485D01*
X534592Y541578D01*
X532607Y543563D01*
X532604Y543564D01*
X532603Y543565D01*
X530369Y543565D01*
X524770Y545884D01*
X514391Y556263D01*
X514388Y556264D01*
X514387Y556265D01*
X508918Y556265D01*
X508917Y556264D01*
X508916Y556264D01*
X505238Y554741D01*
X485362Y554741D01*
X479203Y557292D01*
X474488Y562007D01*
X471937Y568166D01*
X471937Y574834D01*
X474488Y580993D01*
X477691Y584196D01*
X477692Y584198D01*
X477693Y584199D01*
X477692Y584200D01*
X477692Y584203D01*
X477691Y584203D01*
X477691Y584204D01*
X474488Y587407D01*
X471937Y593566D01*
X471937Y600234D01*
X474488Y606393D01*
X477691Y609596D01*
X477692Y609598D01*
X477693Y609599D01*
X477692Y609601D01*
X477692Y609603D01*
X477691Y609603D01*
X477691Y609604D01*
X474488Y612807D01*
X471937Y618966D01*
X471937Y625634D01*
X474488Y631793D01*
X477691Y634996D01*
X477692Y634999D01*
X477692Y635000D01*
X477692Y635001D01*
X477692Y635003D01*
X477691Y635003D01*
X477691Y635004D01*
X474488Y638207D01*
X471937Y644366D01*
X471937Y651034D01*
X474488Y657193D01*
X477691Y660396D01*
X477692Y660399D01*
X477692Y660400D01*
X477692Y660401D01*
X477692Y660403D01*
X477691Y660403D01*
X477691Y660404D01*
X474488Y663607D01*
X471937Y669766D01*
X471937Y676434D01*
X474488Y682593D01*
X477691Y685796D01*
X477692Y685800D01*
X477692Y685801D01*
X477692Y685803D01*
X477691Y685803D01*
X477691Y685804D01*
X474488Y689007D01*
X471937Y695166D01*
X471937Y701834D01*
X474488Y707993D01*
X477691Y711196D01*
X477692Y711200D01*
X477692Y711201D01*
X477692Y711203D01*
X477691Y711203D01*
X477691Y711204D01*
X474488Y714407D01*
X471937Y720566D01*
X471937Y727234D01*
X474488Y733393D01*
X477691Y736596D01*
X477692Y736603D01*
X477691Y736603D01*
X477691Y736604D01*
X474488Y739807D01*
X471937Y745966D01*
X471937Y752634D01*
X474488Y758793D01*
X477691Y761996D01*
X477692Y762003D01*
X477691Y762003D01*
X477691Y762004D01*
X474488Y765207D01*
X471937Y771366D01*
X471937Y778034D01*
X474488Y784193D01*
X479203Y788908D01*
X485362Y791459D01*
X503211Y791459D01*
X503213Y791461D01*
X503215Y791461D01*
X524770Y813016D01*
X526799Y813856D01*
X526799Y813857D01*
X526801Y813858D01*
X526800Y813859D01*
X526801Y813860D01*
X526801Y813862D01*
X526799Y813863D01*
X526799Y813865D01*
X523157Y815752D01*
X513048Y825194D01*
X505860Y837013D01*
X502128Y850333D01*
X502128Y864167D01*
X505860Y877487D01*
X513048Y889306D01*
X515435Y891536D01*
X515436Y891538D01*
X515437Y891539D01*
X515436Y891540D01*
X515436Y891543D01*
X515434Y891543D01*
X515432Y891545D01*
X391803Y891545D01*
X391802Y891544D01*
X391800Y891544D01*
X391800Y891542D01*
X391798Y891540D01*
X391800Y891539D01*
X391800Y891536D01*
X394974Y888362D01*
X394977Y888361D01*
X394978Y888360D01*
X425305Y888360D01*
X430905Y886041D01*
X444716Y872230D01*
X446176Y868706D01*
X446177Y868705D01*
X446177Y868704D01*
X449061Y865820D01*
X452115Y858446D01*
X452115Y830654D01*
X449061Y823280D01*
X443418Y817637D01*
X442534Y817271D01*
X442534Y817270D01*
X442533Y817270D01*
X442533Y817268D01*
X442532Y817265D01*
X442533Y817264D01*
X442533Y817263D01*
X453129Y806666D01*
X457416Y802380D01*
X459735Y796780D01*
X459735Y438113D01*
X459737Y438111D01*
X459737Y438109D01*
X472399Y425447D01*
X472402Y425446D01*
X472403Y425445D01*
X477789Y425445D01*
X488945Y414289D01*
X488945Y398511D01*
X477789Y387355D01*
X462011Y387355D01*
X450855Y398511D01*
X450855Y403897D01*
X450853Y403899D01*
X450853Y403901D01*
X435871Y418884D01*
X431584Y423170D01*
X429265Y428769D01*
X429265Y563075D01*
X429264Y563076D01*
X429265Y563077D01*
X429263Y563077D01*
X429260Y563080D01*
X429259Y563079D01*
X429258Y563080D01*
X428370Y562712D01*
X426604Y562361D01*
X419105Y562361D01*
X419105Y571500D01*
X419101Y571505D01*
X419100Y571505D01*
X403357Y571505D01*
X403357Y572400D01*
X403358Y572408D01*
X403363Y572433D01*
X403366Y572448D01*
X403369Y572463D01*
X403371Y572473D01*
X403374Y572488D01*
X403377Y572503D01*
X403379Y572513D01*
X403382Y572528D01*
X403385Y572542D01*
X403385Y572543D01*
X403387Y572552D01*
X403390Y572567D01*
X403393Y572582D01*
X403398Y572607D01*
X403401Y572622D01*
X403406Y572647D01*
X403409Y572662D01*
X403414Y572687D01*
X403417Y572701D01*
X403417Y572702D01*
X403420Y572716D01*
X403422Y572726D01*
X403425Y572741D01*
X403428Y572756D01*
X403430Y572766D01*
X403433Y572781D01*
X403436Y572796D01*
X403437Y572806D01*
X403438Y572806D01*
X403440Y572821D01*
X403443Y572836D01*
X403448Y572860D01*
X403448Y572861D01*
X403451Y572875D01*
X403456Y572900D01*
X403459Y572915D01*
X403464Y572940D01*
X403467Y572955D01*
X403472Y572980D01*
X403475Y572995D01*
X403478Y573010D01*
X403480Y573019D01*
X403480Y573020D01*
X403483Y573034D01*
X403486Y573049D01*
X403488Y573059D01*
X403491Y573074D01*
X403494Y573089D01*
X403496Y573099D01*
X403499Y573114D01*
X403502Y573129D01*
X403507Y573154D01*
X403510Y573169D01*
X403515Y573193D01*
X403518Y573208D01*
X403522Y573233D01*
X403523Y573233D01*
X403525Y573248D01*
X403528Y573263D01*
X403530Y573273D01*
X403533Y573288D01*
X403536Y573303D01*
X403538Y573313D01*
X403541Y573328D01*
X403544Y573342D01*
X403544Y573343D01*
X403546Y573352D01*
X403549Y573367D01*
X403552Y573382D01*
X403557Y573407D01*
X403560Y573422D01*
X403565Y573447D01*
X403568Y573462D01*
X403573Y573487D01*
X403576Y573501D01*
X403576Y573502D01*
X403581Y573526D01*
X403584Y573541D01*
X403587Y573556D01*
X403589Y573566D01*
X403592Y573581D01*
X403595Y573596D01*
X403597Y573606D01*
X403600Y573621D01*
X403603Y573636D01*
X403605Y573646D01*
X403607Y573660D01*
X403608Y573660D01*
X403607Y573661D01*
X403610Y573675D01*
X403615Y573700D01*
X403618Y573715D01*
X403623Y573740D01*
X403626Y573755D01*
X403631Y573780D01*
X403634Y573795D01*
X403637Y573810D01*
X403639Y573819D01*
X403639Y573820D01*
X403642Y573834D01*
X403645Y573849D01*
X403647Y573859D01*
X403650Y573874D01*
X403653Y573889D01*
X403655Y573899D01*
X403658Y573914D01*
X403661Y573929D01*
X403666Y573954D01*
X403669Y573969D01*
X403674Y573993D01*
X403677Y574008D01*
X403682Y574033D01*
X403685Y574048D01*
X403688Y574063D01*
X403690Y574073D01*
X403692Y574088D01*
X403693Y574088D01*
X403692Y574088D01*
X403695Y574103D01*
X403697Y574113D01*
X403700Y574128D01*
X403703Y574142D01*
X403705Y574152D01*
X403708Y574166D01*
X404397Y575829D01*
X405397Y577326D01*
X406670Y578599D01*
X408167Y579599D01*
X409452Y580131D01*
X409453Y580134D01*
X409455Y580135D01*
X409454Y580136D01*
X409455Y580137D01*
X409452Y580138D01*
X409450Y580141D01*
X409162Y580141D01*
X405484Y581664D01*
X405483Y581664D01*
X405482Y581665D01*
X394497Y581665D01*
X394495Y581663D01*
X394493Y581663D01*
X392508Y579678D01*
X391163Y579121D01*
X391163Y579120D01*
X391162Y579120D01*
X391162Y579119D01*
X391160Y579115D01*
X391161Y579114D01*
X391161Y579113D01*
X391858Y578154D01*
X392765Y576373D01*
X393383Y574473D01*
X393695Y572499D01*
X393695Y571505D01*
X381000Y571505D01*
X368305Y571505D01*
X368305Y572499D01*
X368617Y574473D01*
X369235Y576373D01*
X370142Y578154D01*
X370839Y579113D01*
X370839Y579114D01*
X370839Y579115D01*
X370839Y579120D01*
X370837Y579120D01*
X370837Y579121D01*
X369492Y579678D01*
X363778Y585392D01*
X360685Y592859D01*
X360685Y600941D01*
X363778Y608408D01*
X364966Y609596D01*
X364967Y609598D01*
X364968Y609599D01*
X364967Y609601D01*
X364967Y609603D01*
X364966Y609603D01*
X364966Y609604D01*
X363778Y610792D01*
X360685Y618259D01*
X360685Y626341D01*
X363778Y633808D01*
X364966Y634996D01*
X364967Y634999D01*
X364968Y635000D01*
X364967Y635001D01*
X364967Y635003D01*
X364966Y635003D01*
X364966Y635004D01*
X363778Y636192D01*
X360685Y643659D01*
X360685Y651741D01*
X363778Y659208D01*
X364966Y660396D01*
X364967Y660399D01*
X364967Y660400D01*
X364967Y660401D01*
X364967Y660403D01*
X364966Y660403D01*
X364966Y660404D01*
X363778Y661592D01*
X360685Y669059D01*
X360685Y677141D01*
X363778Y684608D01*
X364966Y685796D01*
X364967Y685800D01*
X364967Y685801D01*
X364967Y685803D01*
X364966Y685803D01*
X364966Y685804D01*
X363778Y686992D01*
X360685Y694459D01*
X360685Y702541D01*
X363778Y710008D01*
X364966Y711196D01*
X364967Y711200D01*
X364967Y711201D01*
X364967Y711203D01*
X364966Y711203D01*
X364966Y711204D01*
X363778Y712392D01*
X360685Y719859D01*
X360685Y727941D01*
X363778Y735408D01*
X364966Y736596D01*
X364967Y736603D01*
X364966Y736603D01*
X364966Y736604D01*
X363778Y737792D01*
X360685Y745259D01*
X360685Y753341D01*
X363778Y760808D01*
X364966Y761996D01*
X364967Y762003D01*
X364966Y762003D01*
X364966Y762004D01*
X363778Y763192D01*
X360685Y770659D01*
X360685Y778741D01*
X363778Y786208D01*
X364966Y787396D01*
X364967Y787403D01*
X364966Y787403D01*
X364966Y787404D01*
X363778Y788592D01*
X360685Y796059D01*
X360685Y804141D01*
X363778Y811608D01*
X364966Y812796D01*
X364967Y812803D01*
X364966Y812803D01*
X364966Y812804D01*
X363778Y813992D01*
X360685Y821459D01*
X360685Y829541D01*
X363778Y837008D01*
X364966Y838196D01*
X364967Y838203D01*
X364966Y838203D01*
X364966Y838204D01*
X363778Y839392D01*
X360685Y846859D01*
X360685Y854941D01*
X361903Y857883D01*
X361903Y857884D01*
X361904Y857884D01*
X361902Y857886D01*
X361901Y857889D01*
X361900Y857889D01*
X361899Y857890D01*
X247701Y857890D01*
X247701Y857889D01*
X247700Y857890D01*
X247699Y857888D01*
X247696Y857885D01*
X247697Y857884D01*
X247697Y857883D01*
X248915Y854941D01*
X248915Y846859D01*
X245822Y839392D01*
X244634Y838204D01*
X244633Y838197D01*
X244634Y838197D01*
X244634Y838196D01*
X245822Y837008D01*
X248915Y829541D01*
X248915Y821459D01*
X245822Y813992D01*
X244634Y812804D01*
X244633Y812797D01*
X244634Y812797D01*
X244634Y812796D01*
X245822Y811608D01*
X248915Y804141D01*
X248915Y796059D01*
X245822Y788592D01*
X244634Y787404D01*
X244633Y787397D01*
X244634Y787397D01*
X244634Y787396D01*
X245822Y786208D01*
X248915Y778741D01*
X248915Y770659D01*
X245822Y763192D01*
X244634Y762004D01*
X244633Y761997D01*
X244634Y761997D01*
X244634Y761996D01*
X245822Y760808D01*
X248915Y753341D01*
X248915Y745259D01*
X245822Y737792D01*
X244634Y736604D01*
X244633Y736597D01*
X244634Y736597D01*
X244634Y736596D01*
X245822Y735408D01*
X248915Y727941D01*
X248915Y719859D01*
X245822Y712392D01*
X244634Y711204D01*
X244633Y711202D01*
X244633Y711201D01*
X244633Y711197D01*
X244634Y711197D01*
X244634Y711196D01*
X245822Y710008D01*
X248915Y702541D01*
X248915Y694459D01*
X245822Y686992D01*
X244634Y685804D01*
X244633Y685802D01*
X244633Y685801D01*
X244633Y685797D01*
X244634Y685797D01*
X244634Y685796D01*
X245822Y684608D01*
X248915Y677141D01*
X248915Y669059D01*
X245822Y661592D01*
X244634Y660404D01*
X244633Y660402D01*
X244633Y660401D01*
X244633Y660400D01*
X244633Y660397D01*
X244634Y660397D01*
X244634Y660396D01*
X245822Y659208D01*
X248915Y651741D01*
X248915Y643659D01*
X245822Y636192D01*
X244634Y635004D01*
X244633Y635002D01*
X244632Y635001D01*
X244633Y635000D01*
X244633Y634997D01*
X244634Y634997D01*
X244634Y634996D01*
X245822Y633808D01*
X248915Y626341D01*
X248915Y618259D01*
X245822Y610792D01*
X244634Y609604D01*
X244633Y609602D01*
X244632Y609601D01*
X244633Y609599D01*
X244633Y609597D01*
X244634Y609597D01*
X244634Y609596D01*
X245822Y608408D01*
X248915Y600941D01*
X248915Y592859D01*
X245822Y585392D01*
X244634Y584204D01*
X244633Y584201D01*
X244632Y584200D01*
X244633Y584199D01*
X244633Y584197D01*
X244634Y584197D01*
X244634Y584196D01*
X245822Y583008D01*
X248915Y575541D01*
X248915Y567459D01*
X245822Y559992D01*
X244634Y558804D01*
X244633Y558801D01*
X244633Y558800D01*
X244633Y558799D01*
X244633Y558797D01*
X244634Y558797D01*
X244634Y558796D01*
X245822Y557608D01*
X248915Y550141D01*
X248915Y542059D01*
X245822Y534592D01*
X240108Y528878D01*
X238763Y528321D01*
X238763Y528320D01*
X238762Y528320D01*
X238762Y528319D01*
X238762Y528318D01*
X238761Y528317D01*
X238761Y528316D01*
X238760Y528315D01*
X238761Y528314D01*
X238761Y528313D01*
X239458Y527354D01*
X240365Y525573D01*
X240983Y523673D01*
X241295Y521699D01*
X241295Y520705D01*
X228600Y520705D01*
X215905Y520705D01*
X215905Y521699D01*
X216217Y523673D01*
X216835Y525573D01*
X217742Y527354D01*
X218439Y528313D01*
X218439Y528314D01*
X218439Y528315D01*
X218439Y528316D01*
X218439Y528320D01*
X218437Y528320D01*
X218437Y528321D01*
X217092Y528878D01*
X212094Y533876D01*
X212092Y533876D01*
X212091Y533878D01*
X212089Y533877D01*
X212087Y533877D01*
X212087Y533874D01*
X212085Y533873D01*
X212085Y507527D01*
X212086Y507526D01*
X212086Y507524D01*
X212088Y507524D01*
X212090Y507522D01*
X212091Y507524D01*
X212094Y507524D01*
X217092Y512522D01*
X218437Y513079D01*
X218437Y513080D01*
X218438Y513080D01*
X218438Y513081D01*
X218440Y513085D01*
X218439Y513086D01*
X218439Y513087D01*
X217742Y514046D01*
X216835Y515827D01*
X216217Y517727D01*
X215905Y519701D01*
X215905Y520695D01*
X228600Y520695D01*
X241295Y520695D01*
X241295Y519701D01*
X240983Y517727D01*
X240365Y515827D01*
X239458Y514046D01*
X238761Y513087D01*
X238761Y513086D01*
X238761Y513085D01*
X238761Y513080D01*
X238763Y513080D01*
X238763Y513079D01*
X240108Y512522D01*
X242093Y510537D01*
X242096Y510536D01*
X242097Y510535D01*
X244330Y510535D01*
X249930Y508216D01*
X279359Y478787D01*
X279362Y478786D01*
X279363Y478785D01*
X326880Y478785D01*
X332480Y476466D01*
X370799Y438147D01*
X370802Y438146D01*
X370803Y438145D01*
X372088Y438145D01*
X379088Y435246D01*
X384446Y429888D01*
X387345Y422888D01*
X387345Y415312D01*
X385213Y410163D01*
X385215Y410157D01*
X385215Y410156D01*
X387062Y409392D01*
X392437Y404016D01*
X395346Y396993D01*
X395346Y389391D01*
X392437Y382368D01*
X387062Y376992D01*
X380039Y374083D01*
X354529Y374083D01*
X349901Y376001D01*
X349898Y376000D01*
X349896Y376000D01*
X349896Y375999D01*
X349894Y375999D01*
X349895Y375996D01*
X349895Y375993D01*
X363370Y362518D01*
X363372Y362518D01*
X363373Y362517D01*
X380038Y362517D01*
X387062Y359608D01*
X392437Y354232D01*
X395346Y347209D01*
X395346Y339607D01*
X392437Y332584D01*
X387062Y327208D01*
X380039Y324299D01*
X364516Y324299D01*
X364515Y324298D01*
X364513Y324298D01*
X364513Y324297D01*
X364512Y324295D01*
X364513Y324293D01*
X364513Y324291D01*
X369275Y319529D01*
X369278Y319528D01*
X369279Y319527D01*
X378696Y319527D01*
X384296Y317208D01*
X420332Y281172D01*
X422651Y275572D01*
X422651Y271576D01*
X422654Y271574D01*
X422654Y271572D01*
X427194Y269692D01*
X432569Y264316D01*
X435478Y257293D01*
X435478Y249691D01*
X432569Y242668D01*
X427194Y237292D01*
X420171Y234383D01*
X394661Y234383D01*
X387638Y237292D01*
X387354Y237577D01*
X387347Y237578D01*
X387347Y237577D01*
X387346Y237577D01*
X387062Y237292D01*
X380039Y234383D01*
X354529Y234383D01*
X347506Y237292D01*
X342131Y242668D01*
X339222Y249691D01*
X339222Y257293D01*
X342131Y264316D01*
X347506Y269692D01*
X354530Y272601D01*
X380038Y272601D01*
X387062Y269692D01*
X387346Y269407D01*
X387353Y269406D01*
X387353Y269407D01*
X387354Y269407D01*
X387638Y269692D01*
X388397Y270006D01*
X388398Y270006D01*
X388398Y270008D01*
X388399Y270010D01*
X388400Y270012D01*
X388398Y270012D01*
X388398Y270014D01*
X369357Y289055D01*
X369355Y289055D01*
X369354Y289056D01*
X369353Y289057D01*
X359935Y289057D01*
X354336Y291376D01*
X323981Y321732D01*
X323979Y321732D01*
X323978Y321733D01*
X323976Y321732D01*
X323974Y321732D01*
X323974Y321730D01*
X323972Y321728D01*
X323972Y319528D01*
X321053Y312482D01*
X315660Y307089D01*
X308614Y304170D01*
X300986Y304170D01*
X294642Y306798D01*
X294641Y306797D01*
X294641Y306798D01*
X294639Y306797D01*
X294636Y306796D01*
X294636Y306794D01*
X294635Y306793D01*
X294635Y290107D01*
X294636Y290106D01*
X294635Y290106D01*
X294637Y290105D01*
X294640Y290102D01*
X294641Y290103D01*
X294642Y290102D01*
X300986Y292730D01*
X308614Y292730D01*
X315660Y289811D01*
X321053Y284418D01*
X323972Y277372D01*
X323972Y269744D01*
X321053Y262698D01*
X315660Y257305D01*
X308614Y254386D01*
X300986Y254386D01*
X294642Y257014D01*
X294641Y257013D01*
X294641Y257014D01*
X294639Y257013D01*
X294636Y257012D01*
X294636Y257010D01*
X294635Y257009D01*
X294635Y218440D01*
X294640Y218435D01*
X294640Y218436D01*
X294640Y218435D01*
X346032Y218435D01*
X346033Y218437D01*
X346034Y218437D01*
X346035Y218437D01*
X347506Y219908D01*
X354530Y222817D01*
X380038Y222817D01*
X387062Y219908D01*
X387346Y219623D01*
X387353Y219622D01*
X387353Y219623D01*
X387354Y219623D01*
X387638Y219908D01*
X394662Y222817D01*
X420170Y222817D01*
X427194Y219908D01*
X432569Y214532D01*
X435478Y207509D01*
X435478Y199907D01*
X432569Y192884D01*
X427194Y187508D01*
X420171Y184599D01*
X394661Y184599D01*
X387638Y187508D01*
X387354Y187793D01*
X387347Y187794D01*
X387347Y187793D01*
X387346Y187793D01*
X387062Y187508D01*
X383538Y186049D01*
X383537Y186046D01*
X383535Y186045D01*
X383535Y186044D01*
X383535Y131456D01*
X383538Y131453D01*
X383538Y131451D01*
X387062Y129992D01*
X392437Y124616D01*
X395346Y117593D01*
X395346Y109991D01*
X392437Y102968D01*
X387062Y97592D01*
X380039Y94683D01*
X354529Y94683D01*
X347506Y97592D01*
X342131Y102968D01*
X339222Y109991D01*
X339222Y117593D01*
X342131Y124616D01*
X347506Y129992D01*
X353062Y132293D01*
X353063Y132296D01*
X353064Y132296D01*
X353065Y132297D01*
X353065Y185203D01*
X353062Y185205D01*
X353062Y185207D01*
X347506Y187508D01*
X347051Y187963D01*
X347049Y187964D01*
X347048Y187965D01*
X323769Y187965D01*
X323768Y187964D01*
X323767Y187965D01*
X323767Y187963D01*
X323764Y187960D01*
X323765Y187959D01*
X323764Y187958D01*
X323972Y187456D01*
X323972Y179828D01*
X321053Y172782D01*
X315660Y167389D01*
X308614Y164470D01*
X300986Y164470D01*
X293940Y167389D01*
X288547Y172782D01*
X285628Y179828D01*
X285628Y187456D01*
X285836Y187958D01*
X285836Y187959D01*
X285835Y187961D01*
X285834Y187964D01*
X285832Y187964D01*
X285831Y187965D01*
X262552Y187965D01*
X262550Y187963D01*
X262549Y187963D01*
X262094Y187508D01*
X257046Y185418D01*
X257045Y185415D01*
X257043Y185414D01*
X257043Y185413D01*
X257043Y132087D01*
X257046Y132084D01*
X257046Y132082D01*
X262094Y129992D01*
X267469Y124616D01*
X270378Y117593D01*
X270378Y109991D01*
X267469Y102968D01*
X262094Y97592D01*
X255071Y94683D01*
X229561Y94683D01*
X222538Y97592D01*
X217163Y102968D01*
X214254Y109991D01*
X214254Y117593D01*
X217163Y124616D01*
X222538Y129992D01*
X226570Y131661D01*
X226571Y131664D01*
X226573Y131665D01*
X226572Y131666D01*
X226573Y131666D01*
X226573Y185834D01*
X226570Y185837D01*
X226570Y185839D01*
X222538Y187508D01*
X222254Y187793D01*
X222247Y187794D01*
X222247Y187793D01*
X222246Y187793D01*
X221962Y187508D01*
X214939Y184599D01*
X189429Y184599D01*
X182406Y187508D01*
X177031Y192884D01*
X174122Y199907D01*
X174122Y207509D01*
X177031Y214532D01*
X182406Y219908D01*
X189430Y222817D01*
X214938Y222817D01*
X221962Y219908D01*
X222246Y219623D01*
X222253Y219622D01*
X222253Y219623D01*
X222254Y219623D01*
X222538Y219908D01*
X229562Y222817D01*
X255070Y222817D01*
X262094Y219908D01*
X263565Y218437D01*
X263567Y218436D01*
X263568Y218435D01*
X264160Y218435D01*
X264165Y218440D01*
X264164Y218440D01*
X264165Y218440D01*
X264165Y239352D01*
X264164Y239353D01*
X264164Y239355D01*
X264162Y239355D01*
X264160Y239356D01*
X264159Y239355D01*
X264156Y239355D01*
X262094Y237292D01*
X255071Y234383D01*
X229561Y234383D01*
X222538Y237292D01*
X222254Y237577D01*
X222247Y237578D01*
X222247Y237577D01*
X222246Y237577D01*
X221962Y237292D01*
X214939Y234383D01*
X189429Y234383D01*
X182406Y237292D01*
X177031Y242668D01*
X174122Y249691D01*
X174122Y257293D01*
X177031Y264316D01*
X182406Y269692D01*
X186946Y271572D01*
X186947Y271575D01*
X186948Y271575D01*
X186949Y271576D01*
X186949Y293153D01*
X186947Y293155D01*
X186947Y293157D01*
X177584Y302520D01*
X175265Y308119D01*
X175265Y374687D01*
X175263Y374689D01*
X175263Y374691D01*
X173994Y375961D01*
X173992Y375961D01*
X173991Y375962D01*
X173989Y375961D01*
X173987Y375961D01*
X173987Y375959D01*
X173985Y375957D01*
X173985Y327170D01*
X171666Y321570D01*
X167379Y317284D01*
X142834Y292739D01*
X142834Y292737D01*
X142833Y292736D01*
X142834Y292734D01*
X142834Y292732D01*
X142836Y292732D01*
X142838Y292730D01*
X143514Y292730D01*
X150560Y289811D01*
X155953Y284418D01*
X158872Y277372D01*
X158872Y269744D01*
X155953Y262698D01*
X150560Y257305D01*
X143514Y254386D01*
X135886Y254386D01*
X130050Y256803D01*
X130049Y256803D01*
X130049Y256804D01*
X130047Y256802D01*
X130044Y256801D01*
X130044Y256800D01*
X130043Y256799D01*
X130043Y200401D01*
X130044Y200401D01*
X130043Y200400D01*
X130045Y200399D01*
X130048Y200396D01*
X130049Y200397D01*
X130050Y200397D01*
X135886Y202814D01*
X143514Y202814D01*
X150560Y199895D01*
X155953Y194502D01*
X158872Y187456D01*
X158872Y179828D01*
X155953Y172782D01*
X150560Y167389D01*
X143514Y164470D01*
X136996Y164470D01*
X136995Y164469D01*
X136993Y164469D01*
X136993Y164467D01*
X136991Y164465D01*
X136993Y164464D01*
X136992Y164461D01*
X221889Y79565D01*
X221891Y79565D01*
X221892Y79564D01*
X221894Y79565D01*
X221895Y79565D01*
X221896Y79565D01*
X222538Y80208D01*
X229562Y83117D01*
X255070Y83117D01*
X262094Y80208D01*
X263565Y78737D01*
X263567Y78736D01*
X263568Y78735D01*
X346032Y78735D01*
X346034Y78737D01*
X346035Y78737D01*
X347506Y80208D01*
X354530Y83117D01*
X380038Y83117D01*
X387062Y80208D01*
X392437Y74832D01*
X395346Y67809D01*
X395346Y60207D01*
X392437Y53184D01*
X387062Y47808D01*
X380039Y44899D01*
X354529Y44899D01*
X347506Y47808D01*
X347051Y48263D01*
X347049Y48264D01*
X347048Y48265D01*
X323769Y48265D01*
X323768Y48264D01*
X323767Y48265D01*
X323767Y48263D01*
X323764Y48260D01*
X323765Y48259D01*
X323764Y48258D01*
X323972Y47756D01*
X323972Y40128D01*
X321053Y33082D01*
X315660Y27689D01*
X308614Y24770D01*
X300986Y24770D01*
X293940Y27689D01*
X288547Y33082D01*
X285628Y40128D01*
X285628Y47756D01*
X285836Y48258D01*
X285836Y48259D01*
X285835Y48261D01*
X285834Y48264D01*
X285832Y48264D01*
X285831Y48265D01*
X262552Y48265D01*
X262550Y48263D01*
X262549Y48263D01*
X262094Y47808D01*
X255071Y44899D01*
X229561Y44899D01*
X222538Y47808D01*
X221575Y48771D01*
X221573Y48772D01*
X221572Y48772D01*
X221572Y48773D01*
X212869Y48773D01*
X207270Y51092D01*
X101892Y156470D01*
X99573Y162069D01*
X99573Y190076D01*
X99572Y190077D01*
X99572Y190079D01*
X99570Y190079D01*
X99568Y190080D01*
X99567Y190079D01*
X99564Y190079D01*
X96994Y187508D01*
X89971Y184599D01*
X64461Y184599D01*
X57438Y187508D01*
X52063Y192884D01*
X49154Y199907D01*
X49154Y207509D01*
X52063Y214532D01*
X57438Y219908D01*
X64462Y222817D01*
X89970Y222817D01*
X96994Y219908D01*
X99564Y217337D01*
X99566Y217337D01*
X99567Y217336D01*
X99569Y217337D01*
X99571Y217337D01*
X99571Y217339D01*
X99573Y217340D01*
X99573Y239860D01*
X99572Y239861D01*
X99572Y239863D01*
X99570Y239863D01*
X99568Y239864D01*
X99567Y239863D01*
X99564Y239863D01*
X96994Y237292D01*
X89971Y234383D01*
X64461Y234383D01*
X57438Y237292D01*
X52063Y242668D01*
X49154Y249691D01*
X49154Y257293D01*
X52063Y264316D01*
X57438Y269692D01*
X64462Y272601D01*
X89970Y272601D01*
X96994Y269692D01*
X99564Y267121D01*
X99566Y267121D01*
X99567Y267120D01*
X99569Y267121D01*
X99571Y267121D01*
X99571Y267123D01*
X99573Y267124D01*
X99573Y289289D01*
X101892Y294888D01*
X143513Y336509D01*
X143513Y336511D01*
X143515Y336512D01*
X143514Y336512D01*
X143515Y336513D01*
X143515Y381037D01*
X143513Y381039D01*
X143513Y381041D01*
X107954Y416601D01*
X107952Y416601D01*
X107951Y416602D01*
X107949Y416601D01*
X107947Y416601D01*
X107947Y416599D01*
X107945Y416597D01*
X107945Y415312D01*
X105046Y408312D01*
X99688Y402954D01*
X92688Y400055D01*
X91403Y400055D01*
X91401Y400053D01*
X91399Y400053D01*
X84830Y393484D01*
X79231Y391165D01*
X54119Y391165D01*
X48520Y393484D01*
X31534Y410470D01*
X29215Y416069D01*
X29215Y458470D01*
X29210Y458475D01*
X29210Y458474D01*
X29210Y458475D01*
X25405Y458475D01*
X25405Y469900D01*
X25405Y481325D01*
X29210Y481325D01*
X29215Y481330D01*
X29214Y481330D01*
X29215Y481330D01*
X29215Y490220D01*
X29210Y490225D01*
X29210Y490224D01*
X29210Y490225D01*
X25405Y490225D01*
X25405Y501650D01*
X25405Y513075D01*
X29210Y513075D01*
X29215Y513080D01*
X29214Y513080D01*
X29215Y513080D01*
X29215Y521970D01*
X29210Y521975D01*
X29210Y521974D01*
X29210Y521975D01*
X25405Y521975D01*
X25405Y533400D01*
X25405Y544825D01*
X29210Y544825D01*
X29215Y544830D01*
X29214Y544830D01*
X29215Y544830D01*
X29215Y553720D01*
X29210Y553725D01*
X29210Y553724D01*
X29210Y553725D01*
X25405Y553725D01*
X25405Y565150D01*
X25405Y576575D01*
X29210Y576575D01*
X29215Y576580D01*
X29214Y576580D01*
X29215Y576580D01*
X29215Y585470D01*
X29210Y585475D01*
X29210Y585474D01*
X29210Y585475D01*
X25405Y585475D01*
X25405Y596900D01*
X25405Y608325D01*
X29210Y608325D01*
X29215Y608330D01*
X29214Y608330D01*
X29215Y608330D01*
X29215Y612631D01*
X31534Y618230D01*
X35821Y622516D01*
X56937Y643632D01*
X56937Y643634D01*
X56938Y643635D01*
X56937Y643637D01*
X56937Y643639D01*
X56935Y643639D01*
X56933Y643641D01*
X53562Y643641D01*
X47403Y646192D01*
X42688Y650907D01*
X40137Y657066D01*
X40137Y663734D01*
X42688Y669893D01*
X45891Y673096D01*
X45892Y673100D01*
X45892Y673101D01*
X45892Y673103D01*
X45891Y673103D01*
X45891Y673104D01*
X42688Y676307D01*
X40137Y682466D01*
X40137Y689134D01*
X42688Y695293D01*
X45891Y698496D01*
X45892Y698500D01*
X45892Y698501D01*
X45892Y698503D01*
X45891Y698503D01*
X45891Y698504D01*
X42688Y701707D01*
X40137Y707866D01*
X40137Y714534D01*
X42688Y720693D01*
X47403Y725408D01*
X53562Y727959D01*
X73438Y727959D01*
X79597Y725408D01*
X84312Y720693D01*
X86863Y714534D01*
X86863Y707866D01*
X84312Y701707D01*
X81109Y698504D01*
X81108Y698502D01*
X81108Y698501D01*
X81108Y698497D01*
X81109Y698497D01*
X81109Y698496D01*
X84312Y695293D01*
X86863Y689134D01*
X86863Y682466D01*
X84312Y676307D01*
X81109Y673104D01*
X81108Y673102D01*
X81108Y673101D01*
X81108Y673097D01*
X81109Y673097D01*
X81109Y673096D01*
X84312Y669893D01*
X86863Y663734D01*
X86863Y657066D01*
X86667Y656592D01*
X86667Y656591D01*
X86666Y656591D01*
X86668Y656589D01*
X86669Y656586D01*
X86670Y656586D01*
X86671Y656585D01*
X91129Y656585D01*
X91129Y656586D01*
X91130Y656585D01*
X91131Y656587D01*
X91134Y656590D01*
X91133Y656591D01*
X91133Y656592D01*
X90937Y657066D01*
X90937Y663734D01*
X93488Y669893D01*
X96691Y673096D01*
X96692Y673100D01*
X96692Y673101D01*
X96692Y673103D01*
X96691Y673103D01*
X96691Y673104D01*
X93488Y676307D01*
X90937Y682466D01*
X90937Y689134D01*
X93488Y695293D01*
X96691Y698496D01*
X96692Y698500D01*
X96692Y698501D01*
X96692Y698503D01*
X96691Y698503D01*
X96691Y698504D01*
X93488Y701707D01*
X90937Y707866D01*
X90937Y714534D01*
X93488Y720693D01*
X98203Y725408D01*
X99062Y725764D01*
X99063Y725767D01*
X99065Y725768D01*
X99065Y733281D01*
X101384Y738880D01*
X106492Y743988D01*
X106492Y743989D01*
X106493Y743989D01*
X106492Y743991D01*
X106492Y743994D01*
X106491Y743994D01*
X106490Y743996D01*
X101667Y745994D01*
X95294Y752367D01*
X91845Y760694D01*
X91845Y769706D01*
X95294Y778033D01*
X101667Y784406D01*
X109994Y787855D01*
X144007Y787855D01*
X144009Y787857D01*
X144011Y787857D01*
X168913Y812759D01*
X168913Y812761D01*
X168914Y812762D01*
X168915Y812763D01*
X168915Y853931D01*
X171234Y859530D01*
X197745Y886041D01*
X203345Y888360D01*
X214622Y888360D01*
X214624Y888362D01*
X214626Y888362D01*
X217800Y891536D01*
X217800Y891538D01*
X217802Y891539D01*
X217801Y891541D01*
X217801Y891543D01*
X217798Y891543D01*
X217797Y891545D01*
X81432Y891545D01*
X81431Y891544D01*
X81429Y891544D01*
X81429Y891542D01*
X81427Y891540D01*
X81428Y891539D01*
X81428Y891537D01*
X87850Y883642D01*
X93362Y870954D01*
X95245Y857250D01*
X95241Y857223D01*
X95237Y857189D01*
X95232Y857154D01*
X95228Y857124D01*
X95227Y857119D01*
X95223Y857089D01*
X95222Y857084D01*
X95218Y857054D01*
X95218Y857049D01*
X95213Y857020D01*
X95213Y857015D01*
X95209Y856985D01*
X95204Y856950D01*
X95199Y856915D01*
X95195Y856885D01*
X95194Y856881D01*
X95194Y856880D01*
X95190Y856851D01*
X95190Y856846D01*
X95185Y856816D01*
X95185Y856811D01*
X95181Y856781D01*
X95176Y856746D01*
X95171Y856712D01*
X95166Y856677D01*
X95162Y856647D01*
X95162Y856642D01*
X95157Y856612D01*
X95157Y856607D01*
X95153Y856577D01*
X95152Y856572D01*
X95148Y856543D01*
X95143Y856508D01*
X95138Y856473D01*
X95134Y856443D01*
X95134Y856438D01*
X95129Y856408D01*
X95129Y856404D01*
X95129Y856403D01*
X95125Y856374D01*
X95124Y856369D01*
X95120Y856339D01*
X95119Y856334D01*
X95115Y856304D01*
X95110Y856269D01*
X95106Y856235D01*
X95101Y856205D01*
X95101Y856200D01*
X95097Y856170D01*
X95096Y856165D01*
X95092Y856135D01*
X95091Y856130D01*
X95087Y856100D01*
X95086Y856095D01*
X95082Y856066D01*
X95078Y856031D01*
X95073Y855996D01*
X95069Y855966D01*
X95068Y855961D01*
X95064Y855931D01*
X95063Y855927D01*
X95063Y855926D01*
X95059Y855897D01*
X95058Y855892D01*
X95054Y855862D01*
X95054Y855857D01*
X95050Y855827D01*
X95045Y855792D01*
X95040Y855758D01*
X95036Y855728D01*
X95035Y855723D01*
X95031Y855693D01*
X95030Y855688D01*
X95026Y855658D01*
X95026Y855653D01*
X95022Y855623D01*
X95021Y855618D01*
X95017Y855589D01*
X95012Y855554D01*
X95007Y855519D01*
X95003Y855489D01*
X95002Y855484D01*
X94998Y855454D01*
X94998Y855450D01*
X94998Y855449D01*
X94994Y855420D01*
X94993Y855415D01*
X94989Y855385D01*
X94988Y855380D01*
X94984Y855350D01*
X94979Y855315D01*
X94974Y855281D01*
X94970Y855251D01*
X94970Y855246D01*
X94966Y855216D01*
X94965Y855211D01*
X94961Y855181D01*
X94960Y855176D01*
X94956Y855146D01*
X94951Y855112D01*
X94946Y855077D01*
X94942Y855042D01*
X94938Y855012D01*
X94937Y855007D01*
X94933Y854977D01*
X94932Y854973D01*
X94932Y854972D01*
X94928Y854943D01*
X94927Y854938D01*
X94923Y854908D01*
X94918Y854873D01*
X94914Y854838D01*
X94910Y854809D01*
X94909Y854804D01*
X94905Y854774D01*
X94904Y854769D01*
X94900Y854739D01*
X94899Y854734D01*
X94895Y854704D01*
X94895Y854699D01*
X94890Y854669D01*
X94886Y854635D01*
X94881Y854600D01*
X94877Y854570D01*
X94876Y854565D01*
X94872Y854535D01*
X94871Y854530D01*
X94867Y854500D01*
X94867Y854496D01*
X94867Y854495D01*
X94862Y854466D01*
X94862Y854461D01*
X94858Y854431D01*
X94853Y854396D01*
X94848Y854361D01*
X94844Y854332D01*
X94843Y854327D01*
X94839Y854297D01*
X94839Y854292D01*
X94834Y854262D01*
X94834Y854257D01*
X94830Y854227D01*
X94829Y854222D01*
X94825Y854192D01*
X94820Y854158D01*
X94815Y854123D01*
X94811Y854093D01*
X94811Y854088D01*
X94806Y854058D01*
X94806Y854053D01*
X94802Y854023D01*
X94801Y854019D01*
X94801Y854018D01*
X94797Y853989D01*
X94796Y853984D01*
X94792Y853954D01*
X94787Y853919D01*
X94783Y853884D01*
X94778Y853855D01*
X94778Y853854D01*
X94778Y853850D01*
X94774Y853820D01*
X94773Y853815D01*
X94769Y853785D01*
X94768Y853780D01*
X94764Y853750D01*
X94763Y853745D01*
X94759Y853715D01*
X94755Y853681D01*
X94750Y853646D01*
X94746Y853616D01*
X94745Y853611D01*
X94741Y853581D01*
X94740Y853576D01*
X94736Y853546D01*
X94735Y853542D01*
X94735Y853541D01*
X94731Y853512D01*
X94727Y853477D01*
X94722Y853442D01*
X94717Y853407D01*
X94713Y853378D01*
X94713Y853377D01*
X94712Y853373D01*
X94708Y853343D01*
X94707Y853338D01*
X94703Y853308D01*
X94703Y853303D01*
X94699Y853273D01*
X94694Y853238D01*
X94689Y853204D01*
X94685Y853174D01*
X94684Y853169D01*
X94680Y853139D01*
X94679Y853134D01*
X94675Y853104D01*
X94675Y853099D01*
X94671Y853069D01*
X94670Y853065D01*
X94670Y853064D01*
X94666Y853035D01*
X94661Y853000D01*
X94656Y852965D01*
X94652Y852935D01*
X94651Y852930D01*
X94647Y852901D01*
X94647Y852900D01*
X94647Y852896D01*
X94643Y852866D01*
X94642Y852861D01*
X94638Y852831D01*
X94637Y852826D01*
X94633Y852796D01*
X94628Y852761D01*
X94623Y852727D01*
X94619Y852697D01*
X94619Y852692D01*
X94615Y852662D01*
X94614Y852657D01*
X94610Y852627D01*
X94609Y852622D01*
X94605Y852592D01*
X94604Y852588D01*
X94604Y852587D01*
X94600Y852558D01*
X94595Y852523D01*
X94591Y852488D01*
X94587Y852458D01*
X94586Y852453D01*
X94582Y852424D01*
X94582Y852423D01*
X94581Y852419D01*
X94577Y852389D01*
X94576Y852384D01*
X94572Y852354D01*
X94572Y852349D01*
X94571Y852349D01*
X94572Y852349D01*
X94567Y852319D01*
X94563Y852284D01*
X94558Y852250D01*
X94554Y852220D01*
X94553Y852215D01*
X94549Y852185D01*
X94548Y852180D01*
X94544Y852150D01*
X94544Y852145D01*
X94543Y852145D01*
X94544Y852145D01*
X94539Y852115D01*
X94539Y852111D01*
X94539Y852110D01*
X94535Y852081D01*
X94530Y852046D01*
X94525Y852011D01*
X94521Y851981D01*
X94520Y851976D01*
X94516Y851947D01*
X94516Y851946D01*
X94516Y851942D01*
X94515Y851942D01*
X94516Y851942D01*
X94511Y851912D01*
X94511Y851907D01*
X94507Y851877D01*
X94502Y851842D01*
X94497Y851807D01*
X94492Y851773D01*
X94488Y851743D01*
X94488Y851738D01*
X94487Y851738D01*
X94488Y851738D01*
X94483Y851708D01*
X94483Y851703D01*
X94479Y851673D01*
X94478Y851668D01*
X94474Y851638D01*
X94469Y851604D01*
X94464Y851569D01*
X94460Y851539D01*
X94460Y851534D01*
X94459Y851534D01*
X94460Y851534D01*
X94455Y851504D01*
X94455Y851499D01*
X94451Y851470D01*
X94451Y851469D01*
X94450Y851465D01*
X94446Y851435D01*
X94445Y851430D01*
X94441Y851400D01*
X94436Y851365D01*
X94432Y851330D01*
X94431Y851330D01*
X94432Y851330D01*
X94427Y851301D01*
X94427Y851296D01*
X94423Y851266D01*
X94422Y851261D01*
X94418Y851231D01*
X94417Y851226D01*
X94413Y851196D01*
X94412Y851191D01*
X94408Y851161D01*
X94404Y851127D01*
X94403Y851127D01*
X94404Y851127D01*
X94399Y851092D01*
X94395Y851062D01*
X94394Y851057D01*
X94390Y851027D01*
X94389Y851022D01*
X94385Y850993D01*
X94385Y850992D01*
X94384Y850988D01*
X94380Y850958D01*
X94380Y850953D01*
X94376Y850923D01*
X94375Y850923D01*
X94376Y850923D01*
X94371Y850888D01*
X94366Y850853D01*
X94362Y850824D01*
X94361Y850819D01*
X94357Y850789D01*
X94356Y850784D01*
X94352Y850754D01*
X94352Y850749D01*
X94348Y850719D01*
X94347Y850719D01*
X94347Y850714D01*
X94343Y850684D01*
X94338Y850650D01*
X94333Y850615D01*
X94329Y850585D01*
X94328Y850580D01*
X94324Y850550D01*
X94324Y850545D01*
X94320Y850516D01*
X94319Y850516D01*
X94319Y850515D01*
X94319Y850511D01*
X94315Y850481D01*
X94314Y850476D01*
X94310Y850446D01*
X94305Y850411D01*
X94300Y850376D01*
X94296Y850347D01*
X94296Y850342D01*
X94292Y850312D01*
X94291Y850312D01*
X94291Y850307D01*
X94287Y850277D01*
X94286Y850272D01*
X94282Y850242D01*
X94277Y850207D01*
X94272Y850173D01*
X94268Y850138D01*
X94264Y850108D01*
X94263Y850108D01*
X94263Y850103D01*
X94259Y850073D01*
X94258Y850068D01*
X94254Y850039D01*
X94254Y850038D01*
X94253Y850034D01*
X94249Y850004D01*
X94244Y849969D01*
X94240Y849934D01*
X94236Y849904D01*
X94235Y849904D01*
X94235Y849899D01*
X94231Y849870D01*
X94230Y849865D01*
X94226Y849835D01*
X94225Y849830D01*
X94221Y849800D01*
X94220Y849795D01*
X94216Y849765D01*
X94212Y849730D01*
X94207Y849696D01*
X94203Y849666D01*
X94202Y849661D01*
X94198Y849631D01*
X94197Y849626D01*
X94193Y849596D01*
X94192Y849591D01*
X94188Y849562D01*
X94188Y849561D01*
X94188Y849557D01*
X94184Y849527D01*
X94179Y849492D01*
X94174Y849457D01*
X94170Y849427D01*
X94169Y849422D01*
X94165Y849393D01*
X94164Y849388D01*
X94160Y849358D01*
X94160Y849353D01*
X94156Y849323D01*
X94155Y849318D01*
X94151Y849288D01*
X94146Y849253D01*
X94141Y849219D01*
X94137Y849189D01*
X94136Y849184D01*
X94132Y849154D01*
X94132Y849149D01*
X94128Y849119D01*
X94127Y849114D01*
X94123Y849085D01*
X94123Y849084D01*
X94122Y849080D01*
X94118Y849050D01*
X94113Y849015D01*
X94108Y848980D01*
X94104Y848950D01*
X94104Y848945D01*
X94100Y848916D01*
X94099Y848911D01*
X94095Y848881D01*
X94094Y848876D01*
X94090Y848846D01*
X94089Y848841D01*
X94085Y848811D01*
X94080Y848776D01*
X94076Y848742D01*
X94072Y848712D01*
X94071Y848707D01*
X94067Y848677D01*
X94066Y848672D01*
X94062Y848642D01*
X94061Y848637D01*
X94057Y848608D01*
X94057Y848607D01*
X94052Y848573D01*
X94048Y848538D01*
X94043Y848503D01*
X94039Y848473D01*
X94038Y848468D01*
X94034Y848439D01*
X94033Y848434D01*
X94029Y848404D01*
X94029Y848399D01*
X94024Y848369D01*
X94020Y848334D01*
X94015Y848299D01*
X94011Y848270D01*
X94010Y848265D01*
X94006Y848235D01*
X94005Y848230D01*
X94001Y848200D01*
X94001Y848195D01*
X93996Y848165D01*
X93996Y848160D01*
X93992Y848131D01*
X93992Y848130D01*
X93987Y848096D01*
X93982Y848061D01*
X93978Y848031D01*
X93977Y848026D01*
X93973Y847996D01*
X93973Y847991D01*
X93968Y847962D01*
X93968Y847957D01*
X93964Y847927D01*
X93963Y847922D01*
X93959Y847892D01*
X93954Y847857D01*
X93949Y847822D01*
X93945Y847793D01*
X93945Y847788D01*
X93940Y847758D01*
X93940Y847753D01*
X93936Y847723D01*
X93935Y847718D01*
X93931Y847688D01*
X93930Y847683D01*
X93926Y847654D01*
X93926Y847653D01*
X93921Y847619D01*
X93917Y847584D01*
X93912Y847554D01*
X93912Y847549D01*
X93908Y847519D01*
X93907Y847514D01*
X93903Y847485D01*
X93902Y847480D01*
X93898Y847450D01*
X93897Y847445D01*
X93893Y847415D01*
X93889Y847380D01*
X93884Y847345D01*
X93880Y847316D01*
X93879Y847311D01*
X93875Y847281D01*
X93874Y847276D01*
X93870Y847246D01*
X93869Y847241D01*
X93865Y847211D01*
X93865Y847206D01*
X93861Y847177D01*
X93861Y847176D01*
X93856Y847142D01*
X93851Y847107D01*
X93847Y847077D01*
X93846Y847072D01*
X93842Y847042D01*
X93841Y847037D01*
X93837Y847008D01*
X93837Y847003D01*
X93833Y846973D01*
X93828Y846938D01*
X93823Y846903D01*
X93818Y846868D01*
X93814Y846839D01*
X93813Y846834D01*
X93809Y846804D01*
X93809Y846799D01*
X93805Y846769D01*
X93804Y846764D01*
X93800Y846734D01*
X93795Y846700D01*
X93795Y846699D01*
X93790Y846665D01*
X93786Y846635D01*
X93785Y846630D01*
X93781Y846600D01*
X93781Y846595D01*
X93777Y846565D01*
X93776Y846560D01*
X93772Y846531D01*
X93771Y846526D01*
X93767Y846496D01*
X93762Y846461D01*
X93757Y846426D01*
X93753Y846396D01*
X93753Y846391D01*
X93749Y846362D01*
X93748Y846357D01*
X93744Y846327D01*
X93743Y846322D01*
X93739Y846292D01*
X93738Y846287D01*
X93734Y846257D01*
X93729Y846223D01*
X93729Y846222D01*
X93725Y846188D01*
X93721Y846158D01*
X93720Y846153D01*
X93716Y846123D01*
X93715Y846118D01*
X93711Y846088D01*
X93710Y846083D01*
X93706Y846054D01*
X93706Y846049D01*
X93701Y846019D01*
X93697Y845984D01*
X93692Y845949D01*
X93688Y845919D01*
X93687Y845914D01*
X93683Y845885D01*
X93682Y845880D01*
X93678Y845850D01*
X93678Y845845D01*
X93673Y845815D01*
X93673Y845810D01*
X93669Y845780D01*
X93664Y845746D01*
X93664Y845745D01*
X93659Y845711D01*
X93655Y845681D01*
X93654Y845676D01*
X93650Y845646D01*
X93650Y845641D01*
X93645Y845611D01*
X93645Y845606D01*
X93641Y845577D01*
X93640Y845572D01*
X93636Y845542D01*
X93631Y845507D01*
X93626Y845472D01*
X93622Y845442D01*
X93622Y845437D01*
X93617Y845408D01*
X93617Y845403D01*
X93613Y845373D01*
X93612Y845368D01*
X93608Y845338D01*
X93603Y845303D01*
X93598Y845269D01*
X93598Y845268D01*
X93594Y845239D01*
X93594Y845234D01*
X93589Y845204D01*
X93589Y845199D01*
X93585Y845169D01*
X93584Y845164D01*
X93580Y845134D01*
X93579Y845129D01*
X93575Y845100D01*
X93570Y845065D01*
X93566Y845030D01*
X93561Y845000D01*
X93561Y844995D01*
X93557Y844965D01*
X93556Y844960D01*
X93552Y844931D01*
X93551Y844926D01*
X93547Y844896D01*
X93546Y844891D01*
X93542Y844861D01*
X93538Y844826D01*
X93533Y844792D01*
X93533Y844791D01*
X93529Y844762D01*
X93528Y844757D01*
X93524Y844727D01*
X93523Y844722D01*
X93519Y844692D01*
X93518Y844687D01*
X93514Y844657D01*
X93514Y844652D01*
X93510Y844623D01*
X93505Y844588D01*
X93500Y844553D01*
X93496Y844523D01*
X93495Y844518D01*
X93491Y844488D01*
X93490Y844483D01*
X93486Y844454D01*
X93486Y844449D01*
X93482Y844419D01*
X93481Y844414D01*
X93477Y844384D01*
X93472Y844349D01*
X93467Y844315D01*
X93467Y844314D01*
X93463Y844285D01*
X93462Y844280D01*
X93458Y844250D01*
X93458Y844245D01*
X93454Y844215D01*
X93453Y844210D01*
X93449Y844180D01*
X93448Y844175D01*
X93444Y844146D01*
X93439Y844111D01*
X93434Y844076D01*
X93430Y844046D01*
X93430Y844041D01*
X93426Y844011D01*
X93425Y844006D01*
X93421Y843977D01*
X93420Y843972D01*
X93416Y843942D01*
X93411Y843907D01*
X93406Y843872D01*
X93402Y843838D01*
X93402Y843837D01*
X93398Y843808D01*
X93397Y843803D01*
X93393Y843773D01*
X93392Y843768D01*
X93388Y843738D01*
X93387Y843733D01*
X93383Y843703D01*
X93378Y843669D01*
X93374Y843634D01*
X93370Y843604D01*
X93369Y843599D01*
X93365Y843569D01*
X93364Y843564D01*
X93362Y843546D01*
X87850Y830858D01*
X80858Y822263D01*
X80858Y822262D01*
X80857Y822262D01*
X80858Y822260D01*
X80858Y822256D01*
X80859Y822256D01*
X80860Y822255D01*
X82772Y821634D01*
X84880Y820559D01*
X86795Y819168D01*
X88468Y817495D01*
X89859Y815580D01*
X90934Y813472D01*
X91665Y811221D01*
X92035Y808883D01*
X92035Y795205D01*
X77005Y795205D01*
X77005Y818624D01*
X77004Y818625D01*
X77004Y818627D01*
X77003Y818627D01*
X77001Y818629D01*
X77000Y818629D01*
X76999Y818628D01*
X76997Y818628D01*
X76996Y818625D01*
X76995Y818624D01*
X76995Y795205D01*
X61965Y795205D01*
X61965Y808883D01*
X62163Y810132D01*
X62162Y810133D01*
X62161Y810134D01*
X62159Y810137D01*
X62157Y810136D01*
X62156Y810137D01*
X54785Y807517D01*
X54756Y807515D01*
X54684Y807510D01*
X54611Y807505D01*
X54539Y807500D01*
X54538Y807500D01*
X54466Y807495D01*
X54393Y807491D01*
X54321Y807486D01*
X54320Y807486D01*
X54248Y807481D01*
X54175Y807476D01*
X54103Y807471D01*
X54030Y807466D01*
X53957Y807461D01*
X53885Y807456D01*
X53812Y807451D01*
X53739Y807446D01*
X53667Y807441D01*
X53594Y807436D01*
X53522Y807431D01*
X53521Y807431D01*
X53449Y807426D01*
X53376Y807421D01*
X53304Y807416D01*
X53303Y807416D01*
X53231Y807411D01*
X53158Y807406D01*
X53086Y807401D01*
X53013Y807396D01*
X52940Y807391D01*
X52868Y807386D01*
X52795Y807381D01*
X52722Y807376D01*
X52650Y807371D01*
X52577Y807366D01*
X52505Y807361D01*
X52504Y807361D01*
X52432Y807356D01*
X52359Y807351D01*
X52287Y807346D01*
X52214Y807341D01*
X52141Y807336D01*
X52069Y807332D01*
X51996Y807327D01*
X51923Y807322D01*
X51851Y807317D01*
X51778Y807312D01*
X51706Y807307D01*
X51705Y807307D01*
X51633Y807302D01*
X51560Y807297D01*
X51488Y807292D01*
X51487Y807292D01*
X51415Y807287D01*
X51342Y807282D01*
X51270Y807277D01*
X51197Y807272D01*
X51124Y807267D01*
X51052Y807262D01*
X50979Y807257D01*
X50906Y807252D01*
X50834Y807247D01*
X50761Y807242D01*
X50689Y807237D01*
X50688Y807237D01*
X50616Y807232D01*
X50543Y807227D01*
X50471Y807222D01*
X50470Y807222D01*
X50398Y807217D01*
X50325Y807212D01*
X50253Y807207D01*
X50180Y807202D01*
X50107Y807197D01*
X50035Y807192D01*
X49962Y807187D01*
X49889Y807182D01*
X49817Y807177D01*
X49744Y807173D01*
X49672Y807168D01*
X49671Y807168D01*
X49599Y807163D01*
X49526Y807158D01*
X49454Y807153D01*
X49381Y807148D01*
X49308Y807143D01*
X49236Y807138D01*
X49163Y807133D01*
X49090Y807128D01*
X49018Y807123D01*
X48945Y807118D01*
X48873Y807113D01*
X48872Y807113D01*
X48800Y807108D01*
X48727Y807103D01*
X48655Y807098D01*
X48654Y807098D01*
X48582Y807093D01*
X48509Y807088D01*
X48437Y807083D01*
X48364Y807078D01*
X48291Y807073D01*
X48219Y807068D01*
X48146Y807063D01*
X48073Y807058D01*
X48001Y807053D01*
X47928Y807048D01*
X47856Y807043D01*
X47855Y807043D01*
X47783Y807038D01*
X47710Y807033D01*
X47638Y807028D01*
X47637Y807028D01*
X47565Y807023D01*
X47492Y807018D01*
X47420Y807014D01*
X47347Y807009D01*
X47274Y807004D01*
X47202Y806999D01*
X47129Y806994D01*
X47056Y806989D01*
X46984Y806984D01*
X46911Y806979D01*
X46839Y806974D01*
X46838Y806974D01*
X46766Y806969D01*
X46693Y806964D01*
X46621Y806959D01*
X46548Y806954D01*
X46475Y806949D01*
X46403Y806944D01*
X46330Y806939D01*
X46257Y806934D01*
X46185Y806929D01*
X46112Y806924D01*
X46040Y806919D01*
X46039Y806919D01*
X45967Y806914D01*
X45894Y806909D01*
X45822Y806904D01*
X45821Y806904D01*
X45749Y806899D01*
X45676Y806894D01*
X45604Y806889D01*
X45531Y806884D01*
X45458Y806879D01*
X45386Y806874D01*
X45313Y806869D01*
X45240Y806864D01*
X45168Y806859D01*
X45095Y806855D01*
X45023Y806850D01*
X45022Y806850D01*
X44950Y806845D01*
X44877Y806840D01*
X44805Y806835D01*
X44804Y806835D01*
X44732Y806830D01*
X44659Y806825D01*
X44587Y806820D01*
X44514Y806815D01*
X44441Y806810D01*
X44369Y806805D01*
X44296Y806800D01*
X44223Y806795D01*
X44151Y806790D01*
X44078Y806785D01*
X44006Y806780D01*
X44005Y806780D01*
X43933Y806775D01*
X43860Y806770D01*
X43788Y806765D01*
X43715Y806760D01*
X43642Y806755D01*
X43570Y806750D01*
X43497Y806745D01*
X43424Y806740D01*
X43352Y806735D01*
X43279Y806730D01*
X43207Y806725D01*
X43206Y806725D01*
X43134Y806720D01*
X43061Y806715D01*
X42989Y806710D01*
X42988Y806710D01*
X42916Y806705D01*
X42843Y806700D01*
X42771Y806696D01*
X42698Y806691D01*
X42625Y806686D01*
X42553Y806681D01*
X42480Y806676D01*
X42407Y806671D01*
X42335Y806666D01*
X42262Y806661D01*
X42190Y806656D01*
X42189Y806656D01*
X42117Y806651D01*
X42044Y806646D01*
X41972Y806641D01*
X41971Y806641D01*
X41899Y806636D01*
X41826Y806631D01*
X41754Y806626D01*
X41681Y806621D01*
X41608Y806616D01*
X41536Y806611D01*
X41463Y806606D01*
X41390Y806601D01*
X41318Y806596D01*
X41245Y806591D01*
X41173Y806586D01*
X41172Y806586D01*
X41100Y806581D01*
X41027Y806576D01*
X40984Y806573D01*
X27440Y809388D01*
X15157Y815752D01*
X10164Y820416D01*
X10162Y820416D01*
X10161Y820417D01*
X10159Y820416D01*
X10157Y820416D01*
X10157Y820414D01*
X10155Y820412D01*
X10155Y352114D01*
X10158Y352111D01*
X10159Y352109D01*
X20252Y349146D01*
X31925Y341644D01*
X41012Y331157D01*
X46777Y318535D01*
X48751Y304800D01*
X48739Y304713D01*
X48734Y304678D01*
X48729Y304644D01*
X48713Y304534D01*
X48708Y304500D01*
X48703Y304465D01*
X48688Y304356D01*
X48687Y304355D01*
X48683Y304321D01*
X48682Y304321D01*
X48678Y304286D01*
X48677Y304286D01*
X48662Y304177D01*
X48657Y304142D01*
X48652Y304107D01*
X48631Y303963D01*
X48626Y303928D01*
X48605Y303784D01*
X48600Y303749D01*
X48580Y303605D01*
X48575Y303570D01*
X48554Y303426D01*
X48549Y303392D01*
X48528Y303247D01*
X48523Y303213D01*
X48502Y303069D01*
X48497Y303034D01*
X48477Y302890D01*
X48472Y302855D01*
X48467Y302820D01*
X48451Y302711D01*
X48446Y302676D01*
X48441Y302641D01*
X48425Y302532D01*
X48420Y302497D01*
X48415Y302462D01*
X48400Y302353D01*
X48395Y302318D01*
X48390Y302284D01*
X48374Y302174D01*
X48369Y302139D01*
X48364Y302105D01*
X48343Y301961D01*
X48338Y301926D01*
X48317Y301782D01*
X48312Y301747D01*
X48292Y301603D01*
X48287Y301568D01*
X48266Y301424D01*
X48261Y301389D01*
X48240Y301245D01*
X48235Y301210D01*
X48215Y301066D01*
X48210Y301031D01*
X48189Y300887D01*
X48184Y300853D01*
X48184Y300852D01*
X48179Y300818D01*
X48163Y300708D01*
X48158Y300674D01*
X48153Y300639D01*
X48137Y300530D01*
X48132Y300495D01*
X48127Y300460D01*
X48112Y300351D01*
X48107Y300316D01*
X48102Y300281D01*
X48086Y300172D01*
X48081Y300137D01*
X48076Y300102D01*
X48055Y299958D01*
X48050Y299923D01*
X48030Y299779D01*
X48025Y299745D01*
X48025Y299744D01*
X48004Y299600D01*
X47999Y299566D01*
X47978Y299422D01*
X47978Y299421D01*
X47973Y299387D01*
X47952Y299243D01*
X47947Y299208D01*
X47927Y299064D01*
X47922Y299029D01*
X47901Y298885D01*
X47896Y298850D01*
X47891Y298815D01*
X47875Y298706D01*
X47870Y298671D01*
X47865Y298636D01*
X47850Y298527D01*
X47849Y298527D01*
X47845Y298492D01*
X47844Y298492D01*
X47840Y298458D01*
X47839Y298458D01*
X47824Y298348D01*
X47819Y298314D01*
X47819Y298313D01*
X47814Y298279D01*
X47798Y298169D01*
X47793Y298135D01*
X47788Y298100D01*
X47772Y297991D01*
X47772Y297990D01*
X47767Y297956D01*
X47762Y297921D01*
X47742Y297777D01*
X47737Y297742D01*
X47716Y297598D01*
X47711Y297563D01*
X47690Y297419D01*
X47685Y297384D01*
X47664Y297240D01*
X47659Y297205D01*
X47639Y297061D01*
X47634Y297027D01*
X47613Y296883D01*
X47613Y296882D01*
X47608Y296848D01*
X47603Y296813D01*
X47587Y296704D01*
X47582Y296669D01*
X47577Y296634D01*
X47562Y296525D01*
X47557Y296490D01*
X47552Y296455D01*
X47536Y296346D01*
X47531Y296311D01*
X47526Y296276D01*
X47510Y296167D01*
X47505Y296132D01*
X47500Y296097D01*
X47484Y295988D01*
X47479Y295953D01*
X47474Y295919D01*
X47454Y295774D01*
X47449Y295740D01*
X47428Y295596D01*
X47423Y295561D01*
X47402Y295417D01*
X47397Y295382D01*
X47377Y295238D01*
X47372Y295203D01*
X47351Y295059D01*
X47346Y295024D01*
X47325Y294880D01*
X47320Y294845D01*
X47315Y294811D01*
X47299Y294701D01*
X47294Y294666D01*
X47289Y294632D01*
X47274Y294522D01*
X47269Y294488D01*
X47264Y294453D01*
X47248Y294343D01*
X47243Y294309D01*
X47238Y294274D01*
X47222Y294165D01*
X47217Y294130D01*
X47212Y294095D01*
X47197Y293986D01*
X47192Y293951D01*
X47187Y293916D01*
X47166Y293772D01*
X47161Y293737D01*
X47140Y293593D01*
X47135Y293558D01*
X47114Y293414D01*
X47109Y293380D01*
X47109Y293379D01*
X47089Y293235D01*
X47084Y293201D01*
X47063Y293057D01*
X47058Y293022D01*
X47037Y292878D01*
X47032Y292843D01*
X47027Y292808D01*
X47012Y292699D01*
X47011Y292699D01*
X47007Y292664D01*
X47006Y292664D01*
X47002Y292629D01*
X47001Y292629D01*
X46986Y292520D01*
X46981Y292485D01*
X46976Y292450D01*
X46960Y292341D01*
X46955Y292306D01*
X46950Y292272D01*
X46950Y292271D01*
X46934Y292162D01*
X46929Y292127D01*
X46924Y292093D01*
X46909Y291983D01*
X46904Y291949D01*
X46904Y291948D01*
X46899Y291914D01*
X46878Y291770D01*
X46873Y291735D01*
X46852Y291591D01*
X46847Y291556D01*
X46826Y291412D01*
X46821Y291377D01*
X46801Y291233D01*
X46796Y291198D01*
X46777Y291065D01*
X41012Y278443D01*
X31925Y267956D01*
X20252Y260454D01*
X10159Y257491D01*
X10156Y257487D01*
X10155Y257486D01*
X10155Y81288D01*
X10156Y81287D01*
X10156Y81285D01*
X10158Y81285D01*
X10160Y81283D01*
X10162Y81284D01*
X10164Y81284D01*
X15158Y85948D01*
X27440Y92312D01*
X40984Y95127D01*
X54785Y94183D01*
X67819Y89550D01*
X79120Y81573D01*
X87850Y70842D01*
X93362Y58154D01*
X95245Y44450D01*
X95244Y44445D01*
X95244Y44440D01*
X95240Y44410D01*
X95239Y44405D01*
X95235Y44376D01*
X95234Y44371D01*
X95230Y44341D01*
X95225Y44306D01*
X95221Y44271D01*
X95216Y44241D01*
X95216Y44236D01*
X95212Y44207D01*
X95211Y44202D01*
X95207Y44172D01*
X95206Y44167D01*
X95202Y44137D01*
X95197Y44102D01*
X95193Y44068D01*
X95193Y44067D01*
X95188Y44033D01*
X95184Y44003D01*
X95183Y43998D01*
X95179Y43968D01*
X95178Y43963D01*
X95174Y43933D01*
X95173Y43928D01*
X95169Y43899D01*
X95165Y43864D01*
X95160Y43829D01*
X95156Y43799D01*
X95155Y43794D01*
X95151Y43764D01*
X95150Y43759D01*
X95146Y43730D01*
X95145Y43725D01*
X95141Y43695D01*
X95141Y43690D01*
X95137Y43660D01*
X95132Y43625D01*
X95127Y43591D01*
X95127Y43590D01*
X95123Y43561D01*
X95122Y43556D01*
X95118Y43526D01*
X95117Y43521D01*
X95113Y43491D01*
X95113Y43486D01*
X95109Y43456D01*
X95108Y43451D01*
X95104Y43422D01*
X95099Y43387D01*
X95094Y43352D01*
X95090Y43322D01*
X95089Y43317D01*
X95085Y43287D01*
X95085Y43282D01*
X95081Y43253D01*
X95080Y43248D01*
X95076Y43218D01*
X95075Y43213D01*
X95071Y43183D01*
X95066Y43148D01*
X95061Y43114D01*
X95061Y43113D01*
X95057Y43084D01*
X95057Y43079D01*
X95053Y43049D01*
X95052Y43044D01*
X95048Y43014D01*
X95047Y43009D01*
X95043Y42979D01*
X95042Y42974D01*
X95038Y42945D01*
X95033Y42910D01*
X95029Y42875D01*
X95025Y42845D01*
X95024Y42840D01*
X95020Y42810D01*
X95019Y42805D01*
X95015Y42776D01*
X95014Y42771D01*
X95010Y42741D01*
X95010Y42736D01*
X95005Y42706D01*
X95001Y42671D01*
X94996Y42637D01*
X94996Y42636D01*
X94992Y42607D01*
X94991Y42602D01*
X94987Y42572D01*
X94986Y42567D01*
X94982Y42537D01*
X94982Y42532D01*
X94977Y42502D01*
X94973Y42468D01*
X94968Y42433D01*
X94963Y42398D01*
X94959Y42368D01*
X94958Y42363D01*
X94954Y42333D01*
X94954Y42328D01*
X94949Y42299D01*
X94949Y42294D01*
X94945Y42264D01*
X94940Y42229D01*
X94935Y42194D01*
X94931Y42165D01*
X94931Y42164D01*
X94930Y42160D01*
X94930Y42159D01*
X94926Y42130D01*
X94926Y42125D01*
X94921Y42095D01*
X94921Y42090D01*
X94917Y42060D01*
X94916Y42055D01*
X94912Y42025D01*
X94907Y41991D01*
X94902Y41956D01*
X94898Y41926D01*
X94898Y41921D01*
X94893Y41891D01*
X94893Y41886D01*
X94889Y41856D01*
X94888Y41851D01*
X94884Y41822D01*
X94883Y41817D01*
X94879Y41787D01*
X94874Y41752D01*
X94870Y41717D01*
X94865Y41688D01*
X94865Y41687D01*
X94865Y41683D01*
X94865Y41682D01*
X94861Y41653D01*
X94860Y41648D01*
X94856Y41618D01*
X94855Y41613D01*
X94851Y41583D01*
X94850Y41578D01*
X94846Y41548D01*
X94842Y41514D01*
X94837Y41479D01*
X94833Y41449D01*
X94832Y41444D01*
X94828Y41414D01*
X94827Y41409D01*
X94823Y41379D01*
X94822Y41374D01*
X94818Y41345D01*
X94818Y41340D01*
X94814Y41310D01*
X94809Y41275D01*
X94804Y41240D01*
X94800Y41211D01*
X94800Y41210D01*
X94799Y41206D01*
X94799Y41205D01*
X94795Y41176D01*
X94794Y41171D01*
X94790Y41141D01*
X94790Y41136D01*
X94786Y41106D01*
X94785Y41101D01*
X94781Y41071D01*
X94776Y41037D01*
X94771Y41002D01*
X94767Y40972D01*
X94766Y40967D01*
X94762Y40937D01*
X94762Y40932D01*
X94758Y40902D01*
X94757Y40897D01*
X94753Y40868D01*
X94748Y40833D01*
X94743Y40798D01*
X94738Y40763D01*
X94734Y40734D01*
X94734Y40733D01*
X94734Y40729D01*
X94734Y40728D01*
X94730Y40699D01*
X94729Y40694D01*
X94725Y40664D01*
X94724Y40659D01*
X94720Y40629D01*
X94715Y40594D01*
X94710Y40560D01*
X94706Y40530D01*
X94706Y40525D01*
X94702Y40495D01*
X94701Y40490D01*
X94697Y40460D01*
X94696Y40455D01*
X94692Y40425D01*
X94691Y40420D01*
X94687Y40391D01*
X94682Y40356D01*
X94678Y40321D01*
X94674Y40291D01*
X94673Y40286D01*
X94669Y40257D01*
X94669Y40256D01*
X94668Y40252D01*
X94668Y40251D01*
X94664Y40222D01*
X94663Y40217D01*
X94659Y40187D01*
X94659Y40182D01*
X94658Y40182D01*
X94659Y40182D01*
X94654Y40152D01*
X94650Y40117D01*
X94645Y40083D01*
X94641Y40053D01*
X94640Y40048D01*
X94636Y40018D01*
X94635Y40013D01*
X94631Y39983D01*
X94631Y39978D01*
X94630Y39978D01*
X94631Y39978D01*
X94626Y39948D01*
X94626Y39943D01*
X94622Y39914D01*
X94617Y39879D01*
X94612Y39844D01*
X94608Y39814D01*
X94607Y39809D01*
X94603Y39780D01*
X94603Y39779D01*
X94603Y39775D01*
X94602Y39775D01*
X94603Y39774D01*
X94598Y39745D01*
X94598Y39740D01*
X94594Y39710D01*
X94593Y39705D01*
X94589Y39675D01*
X94584Y39640D01*
X94579Y39606D01*
X94575Y39576D01*
X94575Y39571D01*
X94574Y39571D01*
X94575Y39571D01*
X94570Y39541D01*
X94570Y39536D01*
X94566Y39506D01*
X94565Y39501D01*
X94561Y39471D01*
X94560Y39466D01*
X94556Y39437D01*
X94551Y39402D01*
X94547Y39367D01*
X94546Y39367D01*
X94547Y39367D01*
X94542Y39337D01*
X94542Y39332D01*
X94538Y39303D01*
X94538Y39302D01*
X94537Y39298D01*
X94537Y39297D01*
X94533Y39268D01*
X94532Y39263D01*
X94528Y39233D01*
X94523Y39198D01*
X94519Y39163D01*
X94518Y39163D01*
X94519Y39163D01*
X94514Y39129D01*
X94510Y39099D01*
X94509Y39094D01*
X94505Y39064D01*
X94504Y39059D01*
X94500Y39029D01*
X94499Y39024D01*
X94495Y38994D01*
X94491Y38960D01*
X94490Y38960D01*
X94491Y38960D01*
X94486Y38925D01*
X94482Y38895D01*
X94481Y38890D01*
X94477Y38860D01*
X94476Y38855D01*
X94472Y38826D01*
X94472Y38825D01*
X94471Y38821D01*
X94471Y38820D01*
X94467Y38791D01*
X94467Y38786D01*
X94463Y38756D01*
X94462Y38756D01*
X94463Y38756D01*
X94458Y38721D01*
X94453Y38686D01*
X94449Y38657D01*
X94448Y38652D01*
X94444Y38622D01*
X94443Y38617D01*
X94439Y38587D01*
X94439Y38582D01*
X94435Y38552D01*
X94434Y38552D01*
X94434Y38547D01*
X94430Y38517D01*
X94425Y38483D01*
X94420Y38448D01*
X94416Y38418D01*
X94415Y38413D01*
X94411Y38383D01*
X94411Y38378D01*
X94407Y38349D01*
X94406Y38348D01*
X94406Y38344D01*
X94406Y38343D01*
X94402Y38314D01*
X94401Y38309D01*
X94397Y38279D01*
X94392Y38244D01*
X94387Y38209D01*
X94383Y38180D01*
X94383Y38175D01*
X94379Y38145D01*
X94378Y38145D01*
X94378Y38140D01*
X94374Y38110D01*
X94373Y38105D01*
X94369Y38075D01*
X94368Y38070D01*
X94364Y38040D01*
X94359Y38006D01*
X94355Y37971D01*
X94351Y37941D01*
X94350Y37941D01*
X94350Y37936D01*
X94346Y37906D01*
X94345Y37901D01*
X94341Y37872D01*
X94341Y37871D01*
X94340Y37867D01*
X94340Y37866D01*
X94336Y37837D01*
X94335Y37832D01*
X94331Y37802D01*
X94327Y37767D01*
X94322Y37732D01*
X94318Y37703D01*
X94317Y37698D01*
X94313Y37668D01*
X94312Y37663D01*
X94308Y37633D01*
X94307Y37628D01*
X94303Y37598D01*
X94299Y37563D01*
X94294Y37529D01*
X94289Y37494D01*
X94285Y37464D01*
X94284Y37459D01*
X94280Y37429D01*
X94279Y37424D01*
X94275Y37395D01*
X94275Y37394D01*
X94275Y37390D01*
X94275Y37389D01*
X94271Y37360D01*
X94266Y37325D01*
X94261Y37290D01*
X94257Y37260D01*
X94256Y37255D01*
X94252Y37226D01*
X94251Y37221D01*
X94247Y37191D01*
X94247Y37186D01*
X94243Y37156D01*
X94242Y37151D01*
X94238Y37121D01*
X94233Y37086D01*
X94228Y37052D01*
X94224Y37022D01*
X94223Y37017D01*
X94219Y36987D01*
X94219Y36982D01*
X94215Y36952D01*
X94214Y36947D01*
X94210Y36918D01*
X94210Y36917D01*
X94209Y36913D01*
X94209Y36912D01*
X94205Y36883D01*
X94200Y36848D01*
X94195Y36813D01*
X94191Y36783D01*
X94191Y36778D01*
X94187Y36749D01*
X94186Y36744D01*
X94182Y36714D01*
X94181Y36709D01*
X94177Y36679D01*
X94176Y36674D01*
X94172Y36644D01*
X94167Y36609D01*
X94163Y36575D01*
X94159Y36545D01*
X94158Y36540D01*
X94154Y36510D01*
X94153Y36505D01*
X94149Y36475D01*
X94148Y36470D01*
X94144Y36441D01*
X94144Y36440D01*
X94144Y36436D01*
X94144Y36435D01*
X94139Y36406D01*
X94135Y36371D01*
X94130Y36336D01*
X94126Y36306D01*
X94125Y36301D01*
X94121Y36272D01*
X94120Y36267D01*
X94116Y36237D01*
X94116Y36232D01*
X94111Y36202D01*
X94111Y36197D01*
X94107Y36167D01*
X94102Y36132D01*
X94097Y36098D01*
X94093Y36068D01*
X94092Y36063D01*
X94088Y36033D01*
X94088Y36028D01*
X94083Y35998D01*
X94083Y35993D01*
X94079Y35964D01*
X94079Y35963D01*
X94074Y35929D01*
X94069Y35894D01*
X94064Y35859D01*
X94060Y35829D01*
X94060Y35824D01*
X94055Y35795D01*
X94055Y35790D01*
X94051Y35760D01*
X94050Y35755D01*
X94046Y35725D01*
X94041Y35690D01*
X94036Y35655D01*
X94032Y35626D01*
X94032Y35621D01*
X94027Y35591D01*
X94027Y35586D01*
X94023Y35556D01*
X94022Y35551D01*
X94018Y35521D01*
X94017Y35516D01*
X94013Y35487D01*
X94013Y35486D01*
X94008Y35452D01*
X94004Y35417D01*
X93999Y35387D01*
X93999Y35382D01*
X93995Y35352D01*
X93994Y35347D01*
X93990Y35318D01*
X93989Y35313D01*
X93985Y35283D01*
X93984Y35278D01*
X93980Y35248D01*
X93976Y35213D01*
X93971Y35178D01*
X93967Y35149D01*
X93966Y35144D01*
X93962Y35114D01*
X93961Y35109D01*
X93957Y35079D01*
X93956Y35074D01*
X93952Y35044D01*
X93952Y35039D01*
X93948Y35010D01*
X93948Y35009D01*
X93943Y34975D01*
X93938Y34940D01*
X93934Y34910D01*
X93933Y34905D01*
X93929Y34875D01*
X93928Y34870D01*
X93924Y34841D01*
X93924Y34836D01*
X93920Y34806D01*
X93919Y34801D01*
X93915Y34771D01*
X93910Y34736D01*
X93905Y34701D01*
X93901Y34672D01*
X93900Y34667D01*
X93896Y34637D01*
X93896Y34632D01*
X93892Y34602D01*
X93891Y34597D01*
X93887Y34567D01*
X93886Y34562D01*
X93882Y34533D01*
X93882Y34532D01*
X93877Y34498D01*
X93872Y34463D01*
X93868Y34433D01*
X93868Y34428D01*
X93864Y34398D01*
X93863Y34393D01*
X93859Y34364D01*
X93858Y34359D01*
X93854Y34329D01*
X93849Y34294D01*
X93844Y34259D01*
X93840Y34224D01*
X93836Y34195D01*
X93835Y34190D01*
X93831Y34160D01*
X93830Y34155D01*
X93826Y34125D01*
X93825Y34120D01*
X93821Y34090D01*
X93816Y34056D01*
X93816Y34055D01*
X93812Y34021D01*
X93808Y33991D01*
X93807Y33986D01*
X93803Y33956D01*
X93802Y33951D01*
X93798Y33921D01*
X93797Y33916D01*
X93793Y33887D01*
X93793Y33882D01*
X93788Y33852D01*
X93784Y33817D01*
X93779Y33782D01*
X93775Y33752D01*
X93774Y33747D01*
X93770Y33718D01*
X93769Y33713D01*
X93765Y33683D01*
X93765Y33678D01*
X93760Y33648D01*
X93760Y33643D01*
X93756Y33613D01*
X93751Y33579D01*
X93751Y33578D01*
X93746Y33544D01*
X93742Y33514D01*
X93741Y33509D01*
X93737Y33479D01*
X93737Y33474D01*
X93732Y33444D01*
X93732Y33439D01*
X93728Y33410D01*
X93727Y33405D01*
X93723Y33375D01*
X93718Y33340D01*
X93713Y33305D01*
X93709Y33275D01*
X93709Y33270D01*
X93704Y33241D01*
X93704Y33236D01*
X93700Y33206D01*
X93699Y33201D01*
X93695Y33171D01*
X93694Y33166D01*
X93690Y33136D01*
X93685Y33102D01*
X93685Y33101D01*
X93681Y33067D01*
X93676Y33037D01*
X93676Y33032D01*
X93672Y33002D01*
X93671Y32997D01*
X93667Y32967D01*
X93666Y32962D01*
X93662Y32933D01*
X93661Y32928D01*
X93657Y32898D01*
X93653Y32863D01*
X93648Y32828D01*
X93644Y32798D01*
X93643Y32793D01*
X93639Y32764D01*
X93638Y32759D01*
X93634Y32729D01*
X93633Y32724D01*
X93629Y32694D01*
X93625Y32659D01*
X93620Y32625D01*
X93620Y32624D01*
X93615Y32590D01*
X93611Y32560D01*
X93610Y32555D01*
X93606Y32525D01*
X93605Y32520D01*
X93601Y32490D01*
X93601Y32485D01*
X93597Y32456D01*
X93592Y32421D01*
X93587Y32386D01*
X93583Y32356D01*
X93582Y32351D01*
X93578Y32321D01*
X93577Y32316D01*
X93573Y32287D01*
X93573Y32282D01*
X93569Y32252D01*
X93568Y32247D01*
X93564Y32217D01*
X93559Y32182D01*
X93554Y32148D01*
X93554Y32147D01*
X93550Y32118D01*
X93549Y32113D01*
X93545Y32083D01*
X93545Y32078D01*
X93541Y32048D01*
X93540Y32043D01*
X93536Y32013D01*
X93535Y32008D01*
X93531Y31979D01*
X93526Y31944D01*
X93521Y31909D01*
X93517Y31879D01*
X93517Y31874D01*
X93513Y31844D01*
X93512Y31839D01*
X93508Y31810D01*
X93507Y31805D01*
X93503Y31775D01*
X93502Y31770D01*
X93498Y31740D01*
X93493Y31705D01*
X93489Y31671D01*
X93489Y31670D01*
X93485Y31641D01*
X93484Y31636D01*
X93480Y31606D01*
X93479Y31601D01*
X93475Y31571D01*
X93474Y31566D01*
X93470Y31536D01*
X93470Y31531D01*
X93469Y31531D01*
X93470Y31531D01*
X93465Y31502D01*
X93461Y31467D01*
X93456Y31432D01*
X93452Y31402D01*
X93451Y31397D01*
X93447Y31367D01*
X93446Y31362D01*
X93442Y31333D01*
X93442Y31328D01*
X93441Y31328D01*
X93442Y31328D01*
X93437Y31298D01*
X93437Y31293D01*
X93433Y31263D01*
X93428Y31228D01*
X93423Y31194D01*
X93423Y31193D01*
X93419Y31164D01*
X93418Y31159D01*
X93414Y31129D01*
X93414Y31124D01*
X93413Y31124D01*
X93414Y31124D01*
X93409Y31094D01*
X93409Y31089D01*
X93405Y31059D01*
X93400Y31025D01*
X93395Y30990D01*
X93390Y30955D01*
X93386Y30925D01*
X93386Y30920D01*
X93385Y30920D01*
X93386Y30920D01*
X93381Y30890D01*
X93381Y30885D01*
X93377Y30856D01*
X93376Y30851D01*
X93372Y30821D01*
X93367Y30786D01*
X93362Y30751D01*
X93362Y30746D01*
X87850Y18058D01*
X81428Y10163D01*
X81428Y10162D01*
X81427Y10161D01*
X81428Y10159D01*
X81428Y10157D01*
X81430Y10157D01*
X81432Y10155D01*
X515432Y10155D01*
X515433Y10156D01*
G37*
%LPC*%
G36*
X377338Y451490D02*
X377338Y451490D01*
X370572Y454293D01*
X365393Y459472D01*
X362590Y466238D01*
X362590Y473562D01*
X364190Y477424D01*
X364189Y477425D01*
X364190Y477426D01*
X364189Y477427D01*
X364188Y477428D01*
X364189Y477430D01*
X362231Y479388D01*
X360685Y483120D01*
X360685Y507480D01*
X362231Y511212D01*
X362731Y511712D01*
X362731Y511714D01*
X362732Y511715D01*
X362731Y511716D01*
X362732Y511718D01*
X360685Y516659D01*
X360685Y524741D01*
X363778Y532208D01*
X364966Y533396D01*
X364967Y533398D01*
X364967Y533399D01*
X364967Y533403D01*
X364966Y533403D01*
X364966Y533404D01*
X363778Y534592D01*
X360685Y542059D01*
X360685Y550141D01*
X363778Y557608D01*
X369492Y563322D01*
X370837Y563879D01*
X370837Y563880D01*
X370838Y563880D01*
X370838Y563881D01*
X370840Y563885D01*
X370839Y563886D01*
X370839Y563887D01*
X370142Y564846D01*
X369235Y566627D01*
X368617Y568527D01*
X368305Y570501D01*
X368305Y571495D01*
X381000Y571495D01*
X393695Y571495D01*
X393695Y570501D01*
X393383Y568527D01*
X392765Y566627D01*
X391858Y564846D01*
X391161Y563887D01*
X391161Y563886D01*
X391161Y563885D01*
X391161Y563880D01*
X391163Y563880D01*
X391163Y563879D01*
X392508Y563322D01*
X398222Y557608D01*
X401315Y550141D01*
X401315Y542059D01*
X398222Y534592D01*
X397034Y533404D01*
X397033Y533400D01*
X397033Y533399D01*
X397033Y533397D01*
X397034Y533397D01*
X397034Y533396D01*
X398222Y532208D01*
X401315Y524741D01*
X401315Y516659D01*
X399268Y511718D01*
X399269Y511717D01*
X399268Y511716D01*
X399269Y511715D01*
X399270Y511714D01*
X399269Y511712D01*
X399769Y511212D01*
X401315Y507480D01*
X401315Y483120D01*
X399769Y479388D01*
X397811Y477430D01*
X397811Y477428D01*
X397810Y477427D01*
X397811Y477426D01*
X397810Y477424D01*
X399410Y473562D01*
X399410Y466238D01*
X396607Y459472D01*
X391428Y454293D01*
X384662Y451490D01*
X377338Y451490D01*
G37*
%LPD*%
%LPC*%
G36*
X55611Y336555D02*
X55611Y336555D01*
X44455Y347711D01*
X44455Y363489D01*
X55611Y374645D01*
X71389Y374645D01*
X75197Y370837D01*
X75200Y370836D01*
X75201Y370835D01*
X89899Y370835D01*
X89901Y370837D01*
X89903Y370837D01*
X92751Y373685D01*
X92751Y373688D01*
X92751Y373689D01*
X92751Y373691D01*
X92751Y373692D01*
X90175Y376268D01*
X90175Y380995D01*
X101600Y380995D01*
X113025Y380995D01*
X113025Y376268D01*
X110449Y373692D01*
X110449Y373690D01*
X110449Y373689D01*
X110449Y373685D01*
X120645Y363489D01*
X120645Y347711D01*
X109489Y336555D01*
X93711Y336555D01*
X89903Y340363D01*
X89900Y340364D01*
X89899Y340365D01*
X75201Y340365D01*
X75199Y340363D01*
X75197Y340363D01*
X71389Y336555D01*
X55611Y336555D01*
G37*
%LPD*%
%LPC*%
G36*
X466086Y164470D02*
X466086Y164470D01*
X459040Y167389D01*
X453647Y172782D01*
X450728Y179828D01*
X450728Y187456D01*
X453647Y194502D01*
X459040Y199895D01*
X466086Y202814D01*
X473714Y202814D01*
X480760Y199895D01*
X486153Y194502D01*
X489072Y187456D01*
X489072Y179828D01*
X486153Y172782D01*
X480760Y167389D01*
X473714Y164470D01*
X466086Y164470D01*
G37*
%LPD*%
%LPC*%
G36*
X300986Y114686D02*
X300986Y114686D01*
X293940Y117605D01*
X288547Y122998D01*
X285628Y130044D01*
X285628Y137672D01*
X288547Y144718D01*
X293940Y150111D01*
X300986Y153030D01*
X308614Y153030D01*
X315660Y150111D01*
X321053Y144718D01*
X323972Y137672D01*
X323972Y130044D01*
X321053Y122998D01*
X315660Y117605D01*
X308614Y114686D01*
X300986Y114686D01*
G37*
%LPD*%
%LPC*%
G36*
X466086Y254386D02*
X466086Y254386D01*
X459040Y257305D01*
X453647Y262698D01*
X450728Y269744D01*
X450728Y277372D01*
X453647Y284418D01*
X459040Y289811D01*
X466086Y292730D01*
X473714Y292730D01*
X480760Y289811D01*
X486153Y284418D01*
X489072Y277372D01*
X489072Y269744D01*
X486153Y262698D01*
X480760Y257305D01*
X473714Y254386D01*
X466086Y254386D01*
G37*
%LPD*%
%LPC*%
G36*
X99465Y826705D02*
X99465Y826705D01*
X99465Y827883D01*
X99835Y830221D01*
X100566Y832472D01*
X101641Y834580D01*
X103032Y836495D01*
X104705Y838168D01*
X106620Y839559D01*
X108728Y840634D01*
X110979Y841365D01*
X113317Y841735D01*
X126995Y841735D01*
X126995Y826705D01*
X99465Y826705D01*
G37*
%LPD*%
%LPC*%
G36*
X77005Y795195D02*
X77005Y795195D01*
X92035Y795195D01*
X92035Y781517D01*
X91665Y779179D01*
X90934Y776928D01*
X89859Y774820D01*
X88468Y772905D01*
X86795Y771232D01*
X84880Y769841D01*
X82772Y768766D01*
X80521Y768035D01*
X78183Y767665D01*
X77005Y767665D01*
X77005Y795195D01*
G37*
%LPD*%
%LPC*%
G36*
X127005Y826705D02*
X127005Y826705D01*
X127005Y841735D01*
X140683Y841735D01*
X143021Y841365D01*
X145272Y840634D01*
X147380Y839559D01*
X149295Y838168D01*
X150968Y836495D01*
X152359Y834580D01*
X153434Y832472D01*
X154165Y830221D01*
X154535Y827883D01*
X154535Y826705D01*
X127005Y826705D01*
G37*
%LPD*%
%LPC*%
G36*
X113317Y811665D02*
X113317Y811665D01*
X110979Y812035D01*
X108728Y812766D01*
X106620Y813841D01*
X104705Y815232D01*
X103032Y816905D01*
X101641Y818820D01*
X100566Y820928D01*
X99835Y823179D01*
X99465Y825517D01*
X99465Y826695D01*
X126995Y826695D01*
X126995Y811665D01*
X113317Y811665D01*
G37*
%LPD*%
%LPC*%
G36*
X127005Y811665D02*
X127005Y811665D01*
X127005Y826695D01*
X154535Y826695D01*
X154535Y825517D01*
X154165Y823179D01*
X153434Y820928D01*
X152359Y818820D01*
X150968Y816905D01*
X149295Y815232D01*
X147380Y813841D01*
X145272Y812766D01*
X143021Y812035D01*
X140683Y811665D01*
X127005Y811665D01*
G37*
%LPD*%
%LPC*%
G36*
X75817Y767665D02*
X75817Y767665D01*
X73479Y768035D01*
X71228Y768766D01*
X69120Y769841D01*
X67205Y771232D01*
X65532Y772905D01*
X64141Y774820D01*
X63066Y776928D01*
X62335Y779179D01*
X61965Y781517D01*
X61965Y795195D01*
X76995Y795195D01*
X76995Y767665D01*
X75817Y767665D01*
G37*
%LPD*%
%LPC*%
G36*
X482351Y844555D02*
X482351Y844555D01*
X482351Y866897D01*
X483325Y866897D01*
X485259Y866591D01*
X487122Y865986D01*
X488867Y865097D01*
X490451Y863946D01*
X491836Y862561D01*
X492987Y860977D01*
X493876Y859232D01*
X494481Y857369D01*
X494787Y855435D01*
X494787Y844555D01*
X482351Y844555D01*
G37*
%LPD*%
%LPC*%
G36*
X482351Y822203D02*
X482351Y822203D01*
X482351Y844545D01*
X494787Y844545D01*
X494787Y833665D01*
X494481Y831731D01*
X493876Y829868D01*
X492987Y828123D01*
X491836Y826539D01*
X490451Y825154D01*
X488867Y824003D01*
X487122Y823114D01*
X485259Y822509D01*
X483325Y822203D01*
X482351Y822203D01*
G37*
%LPD*%
%LPC*%
G36*
X469905Y844555D02*
X469905Y844555D01*
X469905Y855435D01*
X470211Y857369D01*
X470816Y859232D01*
X471705Y860977D01*
X472856Y862561D01*
X474241Y863946D01*
X475825Y865097D01*
X477570Y865986D01*
X479433Y866591D01*
X481367Y866897D01*
X482341Y866897D01*
X482341Y844555D01*
X469905Y844555D01*
G37*
%LPD*%
%LPC*%
G36*
X481367Y822203D02*
X481367Y822203D01*
X479433Y822509D01*
X477570Y823114D01*
X475825Y824003D01*
X474241Y825154D01*
X472856Y826539D01*
X471705Y828123D01*
X470816Y829868D01*
X470211Y831731D01*
X469905Y833665D01*
X469905Y844545D01*
X482341Y844545D01*
X482341Y822203D01*
X481367Y822203D01*
G37*
%LPD*%
%LPC*%
G36*
X411596Y562361D02*
X411596Y562361D01*
X409830Y562712D01*
X408167Y563401D01*
X406670Y564401D01*
X405397Y565674D01*
X404397Y567171D01*
X403708Y568834D01*
X403357Y570600D01*
X403357Y571495D01*
X419095Y571495D01*
X419095Y562361D01*
X411596Y562361D01*
G37*
%LPD*%
%LPC*%
G36*
X13975Y596905D02*
X13975Y596905D01*
X13975Y601632D01*
X20668Y608325D01*
X25395Y608325D01*
X25395Y596905D01*
X13975Y596905D01*
G37*
%LPD*%
%LPC*%
G36*
X13975Y565155D02*
X13975Y565155D01*
X13975Y569882D01*
X20668Y576575D01*
X25395Y576575D01*
X25395Y565155D01*
X13975Y565155D01*
G37*
%LPD*%
%LPC*%
G36*
X13975Y501655D02*
X13975Y501655D01*
X13975Y506382D01*
X20668Y513075D01*
X25395Y513075D01*
X25395Y501655D01*
X13975Y501655D01*
G37*
%LPD*%
%LPC*%
G36*
X13975Y469905D02*
X13975Y469905D01*
X13975Y474632D01*
X20668Y481325D01*
X25395Y481325D01*
X25395Y469905D01*
X13975Y469905D01*
G37*
%LPD*%
%LPC*%
G36*
X13975Y533405D02*
X13975Y533405D01*
X13975Y538132D01*
X20668Y544825D01*
X25395Y544825D01*
X25395Y533405D01*
X13975Y533405D01*
G37*
%LPD*%
%LPC*%
G36*
X101605Y381005D02*
X101605Y381005D01*
X101605Y392425D01*
X106332Y392425D01*
X113025Y385732D01*
X113025Y381005D01*
X101605Y381005D01*
G37*
%LPD*%
%LPC*%
G36*
X508005Y381005D02*
X508005Y381005D01*
X508005Y392425D01*
X512732Y392425D01*
X519425Y385732D01*
X519425Y381005D01*
X508005Y381005D01*
G37*
%LPD*%
%LPC*%
G36*
X90175Y381005D02*
X90175Y381005D01*
X90175Y385732D01*
X96868Y392425D01*
X101595Y392425D01*
X101595Y381005D01*
X90175Y381005D01*
G37*
%LPD*%
%LPC*%
G36*
X496575Y381005D02*
X496575Y381005D01*
X496575Y385732D01*
X503268Y392425D01*
X507995Y392425D01*
X507995Y381005D01*
X496575Y381005D01*
G37*
%LPD*%
%LPC*%
G36*
X20668Y585475D02*
X20668Y585475D01*
X13975Y592168D01*
X13975Y596895D01*
X25395Y596895D01*
X25395Y585475D01*
X20668Y585475D01*
G37*
%LPD*%
%LPC*%
G36*
X20668Y490225D02*
X20668Y490225D01*
X13975Y496918D01*
X13975Y501645D01*
X25395Y501645D01*
X25395Y490225D01*
X20668Y490225D01*
G37*
%LPD*%
%LPC*%
G36*
X20668Y458475D02*
X20668Y458475D01*
X13975Y465168D01*
X13975Y469895D01*
X25395Y469895D01*
X25395Y458475D01*
X20668Y458475D01*
G37*
%LPD*%
%LPC*%
G36*
X20668Y521975D02*
X20668Y521975D01*
X13975Y528668D01*
X13975Y533395D01*
X25395Y533395D01*
X25395Y521975D01*
X20668Y521975D01*
G37*
%LPD*%
%LPC*%
G36*
X20668Y553725D02*
X20668Y553725D01*
X13975Y560418D01*
X13975Y565145D01*
X25395Y565145D01*
X25395Y553725D01*
X20668Y553725D01*
G37*
%LPD*%
%LPC*%
G36*
X503531Y497210D02*
X503531Y497210D01*
X497210Y503531D01*
X497210Y507995D01*
X507995Y507995D01*
X507995Y497210D01*
X503531Y497210D01*
G37*
%LPD*%
%LPC*%
G36*
X497210Y508005D02*
X497210Y508005D01*
X497210Y512469D01*
X503531Y518790D01*
X507995Y518790D01*
X507995Y508005D01*
X497210Y508005D01*
G37*
%LPD*%
D10*
X533400Y508000D03*
D11*
X508000Y508000D03*
D12*
X425704Y774700D02*
X412496Y774700D01*
X412496Y749300D02*
X425704Y749300D01*
X425704Y622300D02*
X412496Y622300D01*
X412496Y596900D02*
X425704Y596900D01*
X425704Y723900D02*
X412496Y723900D01*
X412496Y698500D02*
X425704Y698500D01*
X425704Y647700D02*
X412496Y647700D01*
X412496Y673100D02*
X425704Y673100D01*
X425704Y571500D02*
X412496Y571500D01*
X488696Y571500D02*
X501904Y571500D01*
X501904Y596900D02*
X488696Y596900D01*
X488696Y622300D02*
X501904Y622300D01*
X501904Y647700D02*
X488696Y647700D01*
X488696Y673100D02*
X501904Y673100D01*
X501904Y698500D02*
X488696Y698500D01*
X488696Y723900D02*
X501904Y723900D01*
X501904Y749300D02*
X488696Y749300D01*
X488696Y774700D02*
X501904Y774700D01*
D13*
X101600Y355600D03*
X101600Y381000D03*
X508000Y355600D03*
X508000Y381000D03*
D14*
X381000Y495300D03*
D15*
X381000Y520700D03*
X381000Y546100D03*
X381000Y571500D03*
X381000Y596900D03*
X381000Y622300D03*
X381000Y647700D03*
X381000Y673100D03*
X381000Y698500D03*
X381000Y723900D03*
X381000Y749300D03*
X381000Y774700D03*
X228600Y495300D03*
X228600Y520700D03*
X228600Y546100D03*
X228600Y571500D03*
X228600Y596900D03*
X228600Y622300D03*
X228600Y673100D03*
X228600Y698500D03*
X228600Y749300D03*
X228600Y774700D03*
X228600Y723900D03*
X228600Y647700D03*
X381000Y800100D03*
X381000Y825500D03*
X381000Y850900D03*
X228600Y800100D03*
X228600Y825500D03*
X228600Y850900D03*
D16*
X25400Y533400D03*
X101600Y533400D03*
D13*
X63500Y355600D03*
X63500Y431800D03*
X469900Y330200D03*
X469900Y406400D03*
D16*
X25400Y596900D03*
X101600Y596900D03*
X25400Y501650D03*
X101600Y501650D03*
X25400Y565150D03*
X101600Y565150D03*
X25400Y469900D03*
X101600Y469900D03*
D17*
X358331Y253492D02*
X376238Y253492D01*
X251270Y253492D02*
X233363Y253492D01*
X358331Y203708D02*
X376238Y203708D01*
X251270Y203708D02*
X233363Y203708D01*
X233363Y64008D02*
X251270Y64008D01*
X358331Y64008D02*
X376238Y64008D01*
X251270Y113792D02*
X233363Y113792D01*
X358331Y113792D02*
X376238Y113792D01*
X376238Y393192D02*
X358331Y393192D01*
X251270Y393192D02*
X233363Y393192D01*
X358331Y343408D02*
X376238Y343408D01*
X251270Y343408D02*
X233363Y343408D01*
X211138Y253492D02*
X193231Y253492D01*
X86170Y253492D02*
X68263Y253492D01*
X193231Y203708D02*
X211138Y203708D01*
X86170Y203708D02*
X68263Y203708D01*
X523431Y253492D02*
X541338Y253492D01*
X416370Y253492D02*
X398463Y253492D01*
X523431Y203708D02*
X541338Y203708D01*
X416370Y203708D02*
X398463Y203708D01*
D15*
X546100Y800100D03*
X546100Y774700D03*
X546100Y749300D03*
X546100Y723900D03*
X546100Y698500D03*
X546100Y660400D03*
X546100Y635000D03*
X546100Y609600D03*
X546100Y584200D03*
X546100Y558800D03*
D18*
X139500Y826700D02*
X114500Y826700D01*
X114500Y765200D02*
X139500Y765200D01*
X77000Y782700D02*
X77000Y807700D01*
D19*
X432054Y834644D02*
X432054Y854456D01*
X482346Y854456D02*
X482346Y834644D01*
D12*
X70104Y685800D02*
X56896Y685800D01*
X56896Y660400D02*
X70104Y660400D01*
X70104Y711200D02*
X56896Y711200D01*
X107696Y660400D02*
X120904Y660400D01*
X120904Y685800D02*
X107696Y685800D01*
X107696Y711200D02*
X120904Y711200D01*
D20*
X495300Y571500D02*
X520700Y571500D01*
X533400Y558800D01*
X546100Y558800D01*
X546100Y698500D02*
X558800Y698500D01*
X571500Y685800D01*
X571500Y558800D01*
X546100Y558800D01*
X565150Y215900D02*
X552450Y203200D01*
X532892Y203200D01*
X532384Y203708D02*
X531876Y203200D01*
X241808Y203200D02*
X203200Y203200D01*
X241808Y203200D02*
X279400Y203200D01*
X368300Y203200D01*
X406908Y203200D01*
X77216Y203708D02*
X76708Y203200D01*
X76200Y203200D01*
X202184Y203708D02*
X202692Y203708D01*
X203200Y203200D01*
X241808Y203200D02*
X242316Y203708D01*
X367284Y203708D02*
X367792Y203708D01*
X368300Y203200D01*
X406908Y203200D02*
X407416Y203708D01*
X532384Y203708D02*
X532892Y203200D01*
X242316Y113792D02*
X241808Y114300D01*
X241808Y203200D01*
X367284Y113792D02*
X368300Y114808D01*
X368300Y203200D01*
X366776Y342900D02*
X367284Y343408D01*
X259842Y343408D02*
X242316Y343408D01*
X259842Y343408D02*
X279400Y323850D01*
X279400Y203200D01*
X360934Y343408D02*
X367284Y343408D01*
X360934Y343408D02*
X330200Y374142D01*
X330200Y425450D01*
X226695Y446405D02*
X196850Y476250D01*
X196850Y552450D01*
D21*
X215900Y571500D01*
D20*
X309245Y446405D02*
X330200Y425450D01*
X309245Y446405D02*
X226695Y446405D01*
D21*
X228600Y571500D02*
X215900Y571500D01*
D20*
X533400Y508000D02*
X571500Y508000D01*
X571500Y558800D01*
X565150Y260350D02*
X565150Y215900D01*
X539750Y285750D02*
X539750Y450850D01*
X571500Y482600D01*
X571500Y508000D01*
X539750Y285750D02*
X565150Y260350D01*
X419100Y571500D02*
X381000Y571500D01*
X508000Y508000D02*
X508000Y381000D01*
X25400Y469900D02*
X25400Y501650D01*
X25400Y533400D01*
X25400Y565150D01*
X25400Y596900D01*
X25400Y768350D01*
X52250Y795200D02*
X77000Y795200D01*
X52250Y795200D02*
X25400Y768350D01*
X96450Y826700D02*
X127000Y826700D01*
X77000Y807250D02*
X77000Y795200D01*
X77000Y807250D02*
X96450Y826700D01*
X450850Y381000D02*
X508000Y381000D01*
X450850Y381000D02*
X419100Y412750D01*
X419100Y571500D01*
X25400Y469900D02*
X25400Y393700D01*
X38100Y381000D01*
X101600Y381000D01*
X165100Y839400D02*
X165100Y863600D01*
X165100Y839400D02*
X152400Y826700D01*
X127000Y826700D01*
X165100Y863600D02*
X191010Y889510D01*
X463040Y889510D02*
X482600Y869950D01*
X482600Y844804D01*
X482346Y844550D01*
X463040Y889510D02*
X191010Y889510D01*
X463550Y552450D02*
X508000Y508000D01*
X463550Y793750D02*
X482600Y812800D01*
X482600Y844804D01*
X463550Y793750D02*
X463550Y552450D01*
X285750Y520700D02*
X228600Y520700D01*
X285750Y520700D02*
X336550Y571500D01*
X381000Y571500D01*
D21*
X228600Y723900D02*
X222250Y723900D01*
X184150Y685800D01*
D20*
X139700Y457200D02*
X209550Y387350D01*
D21*
X184150Y615950D02*
X184150Y685800D01*
X184150Y615950D02*
X139700Y571500D01*
D20*
X139700Y533400D01*
X139700Y457200D01*
X209550Y387350D02*
X209550Y330200D01*
X242316Y297434D02*
X242316Y253492D01*
X242316Y297434D02*
X209550Y330200D01*
D22*
X139700Y533400D03*
D20*
X495300Y596900D02*
X520700Y596900D01*
X533400Y584200D01*
X546100Y584200D01*
X520700Y622300D02*
X495300Y622300D01*
X520700Y622300D02*
X533400Y609600D01*
X546100Y609600D01*
X520700Y647700D02*
X495300Y647700D01*
X520700Y647700D02*
X533400Y635000D01*
X546100Y635000D01*
X520700Y673100D02*
X495300Y673100D01*
X520700Y673100D02*
X533400Y660400D01*
X546100Y660400D01*
X508000Y698500D02*
X495300Y698500D01*
X508000Y698500D02*
X533400Y723900D01*
X546100Y723900D01*
X508000Y723900D02*
X495300Y723900D01*
X508000Y723900D02*
X533400Y749300D01*
X546100Y749300D01*
X508000Y749300D02*
X495300Y749300D01*
X508000Y749300D02*
X533400Y774700D01*
X546100Y774700D01*
X508000Y774700D02*
X495300Y774700D01*
X508000Y774700D02*
X533400Y800100D01*
X546100Y800100D01*
X419100Y596900D02*
X381000Y596900D01*
X381000Y622300D02*
X419100Y622300D01*
X419100Y647700D02*
X381000Y647700D01*
X381000Y673100D02*
X419100Y673100D01*
X419100Y698500D02*
X381000Y698500D01*
X381000Y723900D02*
X419100Y723900D01*
X419100Y749300D02*
X381000Y749300D01*
X381000Y774700D02*
X419100Y774700D01*
X101600Y355600D02*
X63500Y355600D01*
X482600Y355600D02*
X508000Y355600D01*
X482600Y355600D02*
X469900Y342900D01*
X469900Y330200D01*
D21*
X228600Y749300D02*
X222250Y749300D01*
X171450Y698500D01*
D20*
X120650Y450850D02*
X190500Y381000D01*
X190500Y311150D01*
X202184Y299466D02*
X202184Y253492D01*
X202184Y299466D02*
X190500Y311150D01*
D21*
X171450Y628650D02*
X171450Y698500D01*
D20*
X120650Y577850D02*
X120650Y565150D01*
X120650Y450850D01*
D23*
X77724Y254000D02*
X77216Y253492D01*
D20*
X101600Y565150D02*
X120650Y565150D01*
D21*
X120650Y577850D02*
X171450Y628650D01*
X222250Y673100D02*
X228600Y673100D01*
X222250Y673100D02*
X209550Y660400D01*
D20*
X177800Y469900D02*
X222250Y425450D01*
X260350Y425450D01*
D21*
X209550Y590550D02*
X209550Y660400D01*
X209550Y590550D02*
X177800Y558800D01*
D20*
X177800Y469900D01*
X280416Y405384D02*
X280416Y386842D01*
X375666Y304292D02*
X407416Y272542D01*
X407416Y253492D01*
X375666Y304292D02*
X362966Y304292D01*
X280416Y386842D01*
X280416Y405384D02*
X260350Y425450D01*
D23*
X407924Y254000D02*
X407416Y253492D01*
D22*
X177800Y469900D03*
D20*
X215900Y850900D02*
X228600Y850900D01*
X215900Y850900D02*
X203200Y838200D01*
X203200Y781050D01*
D21*
X146050Y723900D01*
D20*
X63500Y590550D02*
X63500Y431800D01*
D21*
X63500Y590550D02*
X95250Y622300D01*
X114300Y622300D01*
X146050Y654050D01*
X146050Y723900D01*
D20*
X444500Y431800D02*
X469900Y406400D01*
X406400Y838200D02*
X393700Y850900D01*
X381000Y850900D01*
X406400Y819150D02*
X419100Y806450D01*
X431800Y806450D01*
X444500Y793750D01*
X406400Y819150D02*
X406400Y838200D01*
X444500Y793750D02*
X444500Y431800D01*
X184150Y850900D02*
X206375Y873125D01*
X184150Y850900D02*
X184150Y806450D01*
X142900Y765200D01*
X127000Y765200D01*
X206375Y873125D02*
X422275Y873125D01*
X431800Y863600D01*
X431800Y844804D02*
X432054Y844550D01*
X431800Y844804D02*
X431800Y863600D01*
X114300Y711200D02*
X114300Y685800D01*
X114300Y711200D02*
X114300Y730250D01*
X127000Y742950D01*
X127000Y765200D01*
D21*
X222250Y698500D02*
X228600Y698500D01*
X222250Y698500D02*
X196850Y673100D01*
X196850Y603250D01*
X158750Y565150D01*
D20*
X158750Y501650D01*
X158750Y463550D01*
X229108Y393192D02*
X242316Y393192D01*
X229108Y393192D02*
X158750Y463550D01*
D23*
X242316Y393192D02*
X242824Y393700D01*
D22*
X158750Y501650D03*
D21*
X222250Y774700D02*
X228600Y774700D01*
X222250Y774700D02*
X158750Y711200D01*
X158750Y641350D01*
X114300Y596900D01*
X101600Y596900D01*
D20*
X82550Y577850D01*
X158750Y330200D02*
X114808Y286258D01*
X114808Y165100D01*
X82550Y463550D02*
X82550Y577850D01*
X82550Y463550D02*
X158750Y387350D01*
X158750Y330200D01*
D23*
X367284Y64008D02*
X366776Y63500D01*
D20*
X241300Y63500D01*
X242316Y64008D02*
X215900Y64008D01*
X114808Y165100D01*
X114300Y647700D02*
X114300Y660400D01*
X114300Y647700D02*
X107950Y641350D01*
X76200Y641350D02*
X44450Y609600D01*
X44450Y419100D01*
X57150Y406400D01*
X76200Y641350D02*
X107950Y641350D01*
X273050Y463550D02*
X323850Y463550D01*
X273050Y463550D02*
X241300Y495300D01*
X228600Y495300D01*
X323850Y463550D02*
X368300Y419100D01*
X76200Y406400D02*
X57150Y406400D01*
X76200Y406400D02*
X88900Y419100D01*
D22*
X88900Y419100D03*
X368300Y419100D03*
M02*
