M48
;GenerationSoftware,Autodesk,EAGLE,9.6.2*%
;CreationDate,2024-08-05T22:29:25Z*%
FMAT,2
ICI,OFF
METRIC,TZ,000.000
T10C0.508
T9C0.762
T8C0.813
T7C0.914
T6C1.000
T5C1.194
T4C1.321
T3C1.651
T2C1.803
T1C3.200
%
G90
M71
T1
X4445Y4445
X55245Y4445
X55245Y85725
X4445Y85725
T2
X13970Y18364
X30480Y27356
X30480Y18364
X30480Y4394
X30480Y13386
X30480Y41326
X30480Y32334
X13970Y27356
X46990Y27356
X46990Y18364
T3
X38100Y87630
X22860Y87630
X22860Y46990
X38100Y46990
T4
X48235Y84455
X43205Y84455
T5
X53238Y25349
X7722Y20371
X20218Y20371
X7722Y25349
X20218Y25349
X24232Y34341
X36728Y34341
X24232Y39319
X36728Y39319
X36728Y11379
X24232Y11379
X36728Y6401
X24232Y6401
X24232Y20371
X36728Y20371
X24232Y25349
X36728Y25349
X53238Y20371
X40742Y20371
X40742Y25349
T6
X38100Y85090
X38100Y82550
X38100Y80010
X22860Y64770
X22860Y72390
X22860Y77470
X22860Y74930
X38100Y49530
X38100Y52070
X38100Y54610
X38100Y57150
X38100Y59690
X38100Y62230
X38100Y64770
X22860Y69850
X38100Y69850
X38100Y72390
X38100Y74930
X38100Y77470
X22860Y49530
X22860Y52070
X22860Y54610
X22860Y57150
X38100Y67310
X22860Y62230
X22860Y67310
X22860Y85090
X22860Y82550
X12700Y82670
X12700Y76520
X7700Y79520
X22860Y80010
X22860Y59690
T7
X54610Y66040
X54610Y63500
X54610Y60960
X54610Y58420
X54610Y55880
X54610Y69850
X54610Y80010
X54610Y77470
X54610Y74930
X54610Y72390
T8
X2540Y59690
X10160Y59690
X2540Y50165
X10160Y50165
X2540Y56515
X10160Y56515
X2540Y46990
X10160Y46990
X49530Y62230
X49530Y59690
X49530Y57150
X41910Y57150
X11430Y66040
X41910Y64770
X41910Y69850
X41910Y72390
X41910Y59690
X41910Y62230
X41910Y74930
X41910Y77470
X50800Y50800
X53340Y50800
X11430Y68580
X11430Y71120
X49530Y77470
X50800Y38100
X50800Y35560
X10160Y38100
X10160Y35560
X49530Y74930
X41910Y67310
X49530Y72390
X49530Y69850
X49530Y67310
X49530Y64770
X2540Y53340
X10160Y53340
X6350Y35560
X6350Y43180
X46990Y33020
X46990Y40640
X6350Y68580
X6350Y66040
X6350Y71120
T9
X36830Y41910
X8890Y41910
T10
X13970Y53340
X17780Y46990
X15875Y50165
M30